<?xml version="1.0" encoding="UTF-8" standalone="no"?>
<!-- Created with Inkscape (http://www.inkscape.org/) -->

<svg
   xmlns:dc="http://purl.org/dc/elements/1.1/"
   xmlns:cc="http://creativecommons.org/ns#"
   xmlns:rdf="http://www.w3.org/1999/02/22-rdf-syntax-ns#"
   xmlns:svg="http://www.w3.org/2000/svg"
   xmlns="http://www.w3.org/2000/svg"
   xmlns:sodipodi="http://sodipodi.sourceforge.net/DTD/sodipodi-0.dtd"
   xmlns:inkscape="http://www.inkscape.org/namespaces/inkscape"
   id="svg2985"
   version="1.1"
   inkscape:version="0.48.5 r10040"
   width="105"
   height="150"
   sodipodi:docname="!.jpg">
  <metadata
     id="metadata2991">
    <rdf:RDF>
      <cc:Work
         rdf:about="">
        <dc:format>image/svg+xml</dc:format>
        <dc:type
           rdf:resource="http://purl.org/dc/dcmitype/StillImage" />
        <dc:title></dc:title>
      </cc:Work>
    </rdf:RDF>
  </metadata>
  <defs
     id="defs2989" />
  <sodipodi:namedview
     pagecolor="#ffffff"
     bordercolor="#666666"
     borderopacity="1"
     objecttolerance="10"
     gridtolerance="10"
     guidetolerance="10"
     inkscape:pageopacity="0"
     inkscape:pageshadow="2"
     inkscape:window-width="1366"
     inkscape:window-height="706"
     id="namedview2987"
     showgrid="false"
     inkscape:zoom="3.46"
     inkscape:cx="52.5"
     inkscape:cy="75"
     inkscape:window-x="-8"
     inkscape:window-y="-8"
     inkscape:window-maximized="1"
     inkscape:current-layer="svg2985" />
  <path
     style="fill:none;stroke:#000000;stroke-width:1px;stroke-linecap:butt;stroke-linejoin:miter;stroke-opacity:1"
     d="m 26.589595,19.942197 c 0,0 36.723359,-4.895379 50,-2.023122 4.54515,0.983294 5.026804,9.316312 3.179191,13.583815 -3.373614,7.792164 -6.284407,13.57187 -9.537572,20.520231 -5.142964,10.98474 -7.803468,36.705203 -7.803468,36.705203 0,0 -10.416904,4.537153 -11.271677,0.867052 C 47.423488,73.568961 42.592497,53.908568 36.416185,37.861272 35.235058,34.792467 29.793118,35.437544 28.034682,32.65896 25.753276,29.054009 26.589595,19.942197 26.589595,19.942197 z"
     id="path2995"
     inkscape:connector-curvature="0"
     sodipodi:nodetypes="cssscsssc" />
  <path
     style="fill:none;stroke:#000000;stroke-width:1px;stroke-linecap:butt;stroke-linejoin:miter;stroke-opacity:1"
     d="m 54.046243,105.20231 c 0,0 -7.965746,1.14321 -10.693642,3.75723 -1.872917,1.79473 -2.890173,7.22543 -2.890173,7.22543 l 3.468208,6.93642 5.491329,5.49133 c 0,0 3.842071,3.13574 6.069364,2.89017 2.796747,-0.30836 6.647399,-5.20231 6.647399,-5.20231 l 3.757226,-7.51445 -1.15607,-6.93642 c 0,0 -3.222114,-4.24565 -5.491329,-5.49133 -1.557207,-0.85482 -5.202312,-1.15607 -5.202312,-1.15607 z"
     id="path2997"
     inkscape:connector-curvature="0"
     sodipodi:nodetypes="cscccscccsc" />
</svg>
