<?xml version="1.0" encoding="UTF-8" standalone="no"?>
<!-- Created with Inkscape (http://www.inkscape.org/) -->

<svg
   xmlns:dc="http://purl.org/dc/elements/1.1/"
   xmlns:cc="http://creativecommons.org/ns#"
   xmlns:rdf="http://www.w3.org/1999/02/22-rdf-syntax-ns#"
   xmlns:svg="http://www.w3.org/2000/svg"
   xmlns="http://www.w3.org/2000/svg"
   xmlns:sodipodi="http://sodipodi.sourceforge.net/DTD/sodipodi-0.dtd"
   xmlns:inkscape="http://www.inkscape.org/namespaces/inkscape"
   id="svg2"
   version="1.1"
   inkscape:version="0.48.4 r9939"
   width="159"
   height="153"
   sodipodi:docname="0.jpg">
  <metadata
     id="metadata8">
    <rdf:RDF>
      <cc:Work
         rdf:about="">
        <dc:format>image/svg+xml</dc:format>
        <dc:type
           rdf:resource="http://purl.org/dc/dcmitype/StillImage" />
        <dc:title></dc:title>
      </cc:Work>
    </rdf:RDF>
  </metadata>
  <defs
     id="defs6" />
  <sodipodi:namedview
     pagecolor="#ffffff"
     bordercolor="#666666"
     borderopacity="1"
     objecttolerance="10"
     gridtolerance="10"
     guidetolerance="10"
     inkscape:pageopacity="0"
     inkscape:pageshadow="2"
     inkscape:window-width="1366"
     inkscape:window-height="711"
     id="namedview4"
     showgrid="false"
     inkscape:zoom="1.5424837"
     inkscape:cx="79.5"
     inkscape:cy="76.5"
     inkscape:window-x="0"
     inkscape:window-y="0"
     inkscape:window-maximized="1"
     inkscape:current-layer="svg2" />
  <path
     style="fill:none;stroke:#000000;stroke-width:1px;stroke-linecap:butt;stroke-linejoin:miter;stroke-opacity:1"
     d="m 92.059322,33.063559 c 0,0 -16.919666,1.346353 -24.635593,4.538136 -7.754591,3.207776 -14.95226,8.191564 -20.745763,14.262712 -5.092177,5.336213 -9.354026,11.797701 -11.669491,18.800847 -2.450646,7.412001 -1.944916,23.338983 -1.944916,23.338983 0,0 3.701865,14.183483 7.779661,20.097453 4.951137,7.18056 11.418451,14.101 19.449153,17.50424 5.783906,2.4511 18.800847,1.29661 18.800847,1.29661 0,0 13.500741,-0.60989 20.097458,-1.94491 7.101092,-1.43709 19.042782,-7.06029 25.283902,-11.66949 5.21793,-3.85356 9.07627,-14.91103 9.07627,-14.91103 0,0 4.64193,-13.091651 5.83474,-22.042364 1.11914,-8.397936 1.11936,-17.668484 -2.59322,-25.283899 C 133.37668,50.044443 126.51197,44.78161 119.93644,40.84322 111.20923,35.616088 92.059322,33.063559 92.059322,33.063559 z"
     id="path2987"
     inkscape:connector-curvature="0"
     sodipodi:nodetypes="cssscsscsscsssc" />
  <path
     style="fill:none;stroke:#000000;stroke-width:1px;stroke-linecap:butt;stroke-linejoin:miter;stroke-opacity:1"
     d="m 51.216102,108.26695 c 14.169649,-5.69289 46.673365,-47.230689 60.940678,-59.644069 3.45458,-3.005684 -8.46795,-3.680854 -12.966102,-4.538135 -5.311263,-1.012249 -10.920502,-1.840185 -16.207627,-0.648306 -6.327857,1.426492 -11.779892,6.628503 -16.855932,9.724577 -5.6111,3.422427 -10.342169,8.885465 -14.262712,13.614407 -3.456371,4.16906 -7.779661,14.262712 -7.779661,14.262712 l 0,12.966101 c 0,0 2.199142,16.244313 7.131356,14.262713 z"
     id="path2989"
     inkscape:connector-curvature="0"
     sodipodi:nodetypes="ssssssccs" />
  <path
     style="fill:none;stroke:#000000;stroke-width:1px;stroke-linecap:butt;stroke-linejoin:miter;stroke-opacity:1"
     d="m 58.995763,117.34322 c 15.983224,-9.60114 53.466727,-48.799093 63.533897,-62.237288 2.31776,-3.093864 5.18644,10.372882 5.18644,10.372882 l 1.29661,13.614406 c 0,0 -2.76565,11.469499 -4.53813,16.207627 -2.10923,5.638293 -3.9789,8.946073 -7.77967,13.614403 -2.2708,2.78914 -8.42796,7.13136 -8.42796,7.13136 l -12.966103,3.88983 -17.504237,2.59322 -7.131356,0.64831 c 0,0 -15.397543,-3.59531 -11.669491,-5.83475 z"
     id="path2991"
     inkscape:connector-curvature="0"
     sodipodi:nodetypes="ssccssccccs" />
</svg>
