<?xml version="1.0" encoding="UTF-8" standalone="no"?>
<!-- Created with Inkscape (http://www.inkscape.org/) -->

<svg
   xmlns:dc="http://purl.org/dc/elements/1.1/"
   xmlns:cc="http://creativecommons.org/ns#"
   xmlns:rdf="http://www.w3.org/1999/02/22-rdf-syntax-ns#"
   xmlns:svg="http://www.w3.org/2000/svg"
   xmlns="http://www.w3.org/2000/svg"
   xmlns:sodipodi="http://sodipodi.sourceforge.net/DTD/sodipodi-0.dtd"
   xmlns:inkscape="http://www.inkscape.org/namespaces/inkscape"
   id="svg2"
   version="1.1"
   inkscape:version="0.48.4 r9939"
   width="117"
   height="144"
   sodipodi:docname="1.jpg">
  <metadata
     id="metadata8">
    <rdf:RDF>
      <cc:Work
         rdf:about="">
        <dc:format>image/svg+xml</dc:format>
        <dc:type
           rdf:resource="http://purl.org/dc/dcmitype/StillImage" />
        <dc:title></dc:title>
      </cc:Work>
    </rdf:RDF>
  </metadata>
  <defs
     id="defs6" />
  <sodipodi:namedview
     pagecolor="#ffffff"
     bordercolor="#666666"
     borderopacity="1"
     objecttolerance="10"
     gridtolerance="10"
     guidetolerance="10"
     inkscape:pageopacity="0"
     inkscape:pageshadow="2"
     inkscape:window-width="1366"
     inkscape:window-height="675"
     id="namedview4"
     showgrid="false"
     inkscape:zoom="1.6388889"
     inkscape:cx="58.5"
     inkscape:cy="72"
     inkscape:window-x="0"
     inkscape:window-y="28"
     inkscape:window-maximized="1"
     inkscape:current-layer="svg2" />
  <path
     style="fill:none;stroke:#000000;stroke-width:1px;stroke-linecap:butt;stroke-linejoin:miter;stroke-opacity:1"
     d="M 57.355932,39.661017 42.101695,54.915254 c 0,0 -4.591328,-0.123841 -5.491526,-1.830508 -1.381607,-2.619362 2.440678,-8.542373 2.440678,-8.542373 2.173093,1.62982 25.038826,-34.493057 24.40678,-26.237288 -0.791584,10.339655 3.227271,87.254235 4.881356,87.254235 0,0.56615 22.860699,-0.53071 31.728817,0 1.99958,0.11966 2.75446,3.5131 2.44067,5.49153 -0.42864,2.70255 -5.491521,6.10169 -5.491521,6.10169 l -71.38983,7.32204 c 0,0 -5.060072,-1.50374 -5.491526,-3.66102 -0.575272,-2.87637 4.881356,-7.32203 4.881356,-7.32203 L 58.576271,108 z"
     id="path2987"
     inkscape:connector-curvature="0"
     sodipodi:nodetypes="ccscscssccsccc" />
</svg>
