<?xml version="1.0" encoding="UTF-8" standalone="no"?>
<!-- Created with Inkscape (http://www.inkscape.org/) -->

<svg
   xmlns:dc="http://purl.org/dc/elements/1.1/"
   xmlns:cc="http://creativecommons.org/ns#"
   xmlns:rdf="http://www.w3.org/1999/02/22-rdf-syntax-ns#"
   xmlns:svg="http://www.w3.org/2000/svg"
   xmlns="http://www.w3.org/2000/svg"
   xmlns:sodipodi="http://sodipodi.sourceforge.net/DTD/sodipodi-0.dtd"
   xmlns:inkscape="http://www.inkscape.org/namespaces/inkscape"
   id="svg2"
   version="1.1"
   inkscape:version="0.48.4 r9939"
   width="120"
   height="135"
   sodipodi:docname="2.jpg">
  <metadata
     id="metadata8">
    <rdf:RDF>
      <cc:Work
         rdf:about="">
        <dc:format>image/svg+xml</dc:format>
        <dc:type
           rdf:resource="http://purl.org/dc/dcmitype/StillImage" />
        <dc:title></dc:title>
      </cc:Work>
    </rdf:RDF>
  </metadata>
  <defs
     id="defs6" />
  <sodipodi:namedview
     pagecolor="#ffffff"
     bordercolor="#666666"
     borderopacity="1"
     objecttolerance="10"
     gridtolerance="10"
     guidetolerance="10"
     inkscape:pageopacity="0"
     inkscape:pageshadow="2"
     inkscape:window-width="1366"
     inkscape:window-height="675"
     id="namedview4"
     showgrid="false"
     inkscape:zoom="3.4962963"
     inkscape:cx="60"
     inkscape:cy="67.5"
     inkscape:window-x="0"
     inkscape:window-y="28"
     inkscape:window-maximized="1"
     inkscape:current-layer="svg2" />
  <path
     style="fill:none;stroke:#000000;stroke-width:1px;stroke-linecap:butt;stroke-linejoin:miter;stroke-opacity:1"
     d="m 41.186441,42.330508 c 1.917472,-0.602774 8.434744,-7.722457 8.580508,-7.722457 0,0 3.500494,-3.304493 5.720339,-4.004237 3.273422,-1.031855 10.29661,0 10.29661,0 l 9.152543,0.286016 6.292373,3.146187 5.434322,5.720339 c 0,0 2.615925,5.789264 2.574152,8.866525 -0.06794,5.004609 -4.576271,14.300848 -4.576271,14.300848 L 80.370763,74.07839 c 0,0 -0.747106,6.430047 -2.86017,8.580508 -1.204632,1.225951 -3.166417,1.995593 -4.862288,1.716102 -3.349738,-0.552059 -8.008474,-6.292373 -8.008474,-6.292373 0,0 -4.232407,-3.779366 -6.864407,-4.576271 -3.376183,-1.022226 -10.582627,0 -10.582627,0 l -7.722458,3.146186 c 0,0 -5.417626,2.993076 -7.150424,5.434322 -2.14649,3.024075 -3.432203,10.582628 -3.432203,10.582628 0,0 -0.427657,7.763458 1.144068,11.154658 1.446034,3.12001 4.004416,6.04788 7.150423,7.43644 3.315545,1.46339 7.261778,0.87171 10.868644,0.28602 3.87211,-0.62875 10.582628,-4.00424 10.582628,-4.00424 l 4.290254,-4.86229 3.432203,-4.29025 c 0,0 2.5393,-5.066284 3.718221,-4.004237 2.182189,1.965856 6.613668,7.634267 7.150423,6.292377 l 6.006356,3.14618 c 0,0 3.525084,2.28763 5.434322,2.00212 2.960783,-0.44275 7.150424,-5.43432 7.150424,-5.43432 l 5.148302,-7.150425 c 0,0 2.3246,-3.335462 2.00212,-5.148305 -0.37855,-2.128076 -1.71629,-4.762037 -4.290252,-4.862288 -2.49337,-0.09711 -5.720339,4.290254 -5.720339,4.290254 l -6.292373,5.720339 c 0,0 -3.146547,0.46829 -4.004238,-0.572033 -1.214473,-1.473077 0.286017,-5.720339 0.286017,-5.720339 l 5.434322,-9.724577 4.862288,-11.726695 1.144068,-10.29661 0.286017,-10.868644 c 0,0 0.584619,-6.413733 -0.286017,-9.438559 -0.886467,-3.079827 -4.862288,-8.294492 -4.862288,-8.294492 l -6.864407,-4.576271 -9.152542,-2.574153 -7.722458,0 -8.008474,1.430085 -7.722458,3.146187 -5.434322,3.146186 -4.576271,2.86017 -3.71822,4.576271 c 0,0 -1.234136,3.887882 -0.286017,5.434322 0.981577,1.601012 3.35678,2.851317 5.148305,2.288135 z"
     id="path2987"
     inkscape:connector-curvature="0"
     sodipodi:nodetypes="scsccccsccsscsccscssscccsccsccssccscccccscccccccccss" />
  <path
     style="fill:none;stroke:#000000;stroke-width:1px;stroke-linecap:butt;stroke-linejoin:miter;stroke-opacity:1"
     d="M 59.205508,90.667373 C 58.371464,87.85129 53.771186,85.519068 53.771186,85.519068 l -8.580508,0.572034 -5.720339,4.576271 0,5.434322 2.860169,4.290255 4.004238,1.14407 4.576271,-0.57204 3.71822,-2.002116 4.290255,-3.146186 c 0,0 0.808907,-3.382809 0.286016,-5.148305 z"
     id="path2989"
     inkscape:connector-curvature="0"
     sodipodi:nodetypes="scccccccccs" />
</svg>
