<?xml version="1.0" encoding="UTF-8" standalone="no"?>
<!-- Created with Inkscape (http://www.inkscape.org/) -->

<svg
   xmlns:dc="http://purl.org/dc/elements/1.1/"
   xmlns:cc="http://creativecommons.org/ns#"
   xmlns:rdf="http://www.w3.org/1999/02/22-rdf-syntax-ns#"
   xmlns:svg="http://www.w3.org/2000/svg"
   xmlns="http://www.w3.org/2000/svg"
   xmlns:sodipodi="http://sodipodi.sourceforge.net/DTD/sodipodi-0.dtd"
   xmlns:inkscape="http://www.inkscape.org/namespaces/inkscape"
   id="svg2"
   version="1.1"
   inkscape:version="0.48.4 r9939"
   width="111"
   height="186"
   sodipodi:docname="3.jpg">
  <metadata
     id="metadata8">
    <rdf:RDF>
      <cc:Work
         rdf:about="">
        <dc:format>image/svg+xml</dc:format>
        <dc:type
           rdf:resource="http://purl.org/dc/dcmitype/StillImage" />
        <dc:title></dc:title>
      </cc:Work>
    </rdf:RDF>
  </metadata>
  <defs
     id="defs6" />
  <sodipodi:namedview
     pagecolor="#ffffff"
     bordercolor="#666666"
     borderopacity="1"
     objecttolerance="10"
     gridtolerance="10"
     guidetolerance="10"
     inkscape:pageopacity="0"
     inkscape:pageshadow="2"
     inkscape:window-width="1366"
     inkscape:window-height="675"
     id="namedview4"
     showgrid="false"
     inkscape:zoom="3.588757"
     inkscape:cx="55.5"
     inkscape:cy="93"
     inkscape:window-x="0"
     inkscape:window-y="28"
     inkscape:window-maximized="1"
     inkscape:current-layer="svg2" />
  <path
     style="fill:none;stroke:#000000;stroke-width:1px;stroke-linecap:butt;stroke-linejoin:miter;stroke-opacity:1"
     d="m 34.273705,35.808722 9.474033,-3.901072 7.802144,-0.835944 10.031329,0.278648 10.031328,2.229184 8.35944,4.17972 c 0,0 4.526611,2.955414 5.572961,5.294312 1.25227,2.799189 0.278648,9.195385 0.278648,9.195385 l -1.950537,9.195384 -3.622424,4.458368 -4.17972,6.408904 c 0,0 -2.647278,2.850296 -2.229184,4.458369 0.622331,2.393613 6.130256,4.17972 6.130256,4.17972 l 6.687553,8.916736 1.950536,8.35944 c 0,0 0.888422,5.718384 0,8.359444 -1.077968,3.20453 -6.130257,8.08079 -6.130257,8.08079 l -5.851608,4.17972 -8.638088,6.68755 -8.080793,3.06513 -14.211048,3.34378 -11.703217,0 -10.588624,1.95053 -5.851608,0 c 0,0 -2.530024,-2.35535 -2.507832,-3.90107 0.0307,-2.1381 3.622424,-5.29431 3.622424,-5.29431 l 8.638088,-2.78648 9.752681,-1.11459 12.53916,-1.1146 7.802144,-2.78648 8.359441,-3.34377 5.57296,-6.13026 3.901072,-5.85161 c 0,0 1.031529,-5.414746 0,-7.802142 -0.860046,-1.990512 -4.737016,-4.458368 -4.737016,-4.458368 l -8.35944,-2.507832 c 0,0 -6.459669,-0.941616 -9.474033,0 -2.803605,0.87578 -7.523496,3.901072 -7.523496,3.901072 l -8.080793,2.507832 c 0,0 -4.097407,0.466336 -4.737016,-0.835944 -1.106321,-2.252532 -0.278648,-7.523496 -0.278648,-7.523496 l 7.244849,-3.622424 9.474032,-3.343776 7.802144,-3.343777 6.966201,-2.507832 5.851608,-6.408904 5.851608,-8.080792 c 0,0 2.978559,-4.353783 2.507832,-6.687553 -0.454691,-2.254268 -4.737016,-5.015664 -4.737016,-5.015664 0,0 -4.196255,-3.227552 -6.687552,-3.901072 -3.138231,-0.848418 -9.752681,0 -9.752681,0 l -8.080792,2.229184 -9.75268,2.229184 -5.572961,0 c 0,0 -2.526007,-2.753366 -2.507832,-4.458368 0.0253,-2.373376 3.622424,-6.130256 3.622424,-6.130256 z"
     id="path2987"
     inkscape:connector-curvature="0"
     sodipodi:nodetypes="ccccccsccccscccsccccccccsccccccccsccsccscccccccscsccccsc" />
</svg>
