<?xml version="1.0" encoding="UTF-8" standalone="no"?>
<!-- Created with Inkscape (http://www.inkscape.org/) -->

<svg
   xmlns:dc="http://purl.org/dc/elements/1.1/"
   xmlns:cc="http://creativecommons.org/ns#"
   xmlns:rdf="http://www.w3.org/1999/02/22-rdf-syntax-ns#"
   xmlns:svg="http://www.w3.org/2000/svg"
   xmlns="http://www.w3.org/2000/svg"
   xmlns:sodipodi="http://sodipodi.sourceforge.net/DTD/sodipodi-0.dtd"
   xmlns:inkscape="http://www.inkscape.org/namespaces/inkscape"
   id="svg2"
   version="1.1"
   inkscape:version="0.48.4 r9939"
   width="102"
   height="165"
   sodipodi:docname="4.jpg">
  <metadata
     id="metadata8">
    <rdf:RDF>
      <cc:Work
         rdf:about="">
        <dc:format>image/svg+xml</dc:format>
        <dc:type
           rdf:resource="http://purl.org/dc/dcmitype/StillImage" />
        <dc:title></dc:title>
      </cc:Work>
    </rdf:RDF>
  </metadata>
  <defs
     id="defs6" />
  <sodipodi:namedview
     pagecolor="#ffffff"
     bordercolor="#666666"
     borderopacity="1"
     objecttolerance="10"
     gridtolerance="10"
     guidetolerance="10"
     inkscape:pageopacity="0"
     inkscape:pageshadow="2"
     inkscape:window-width="1366"
     inkscape:window-height="711"
     id="namedview4"
     showgrid="false"
     inkscape:zoom="2.8606061"
     inkscape:cx="51"
     inkscape:cy="82.5"
     inkscape:window-x="0"
     inkscape:window-y="27"
     inkscape:window-maximized="1"
     inkscape:current-layer="svg2" />
  <path
     style="fill:none;stroke:#000000;stroke-width:1px;stroke-linecap:butt;stroke-linejoin:miter;stroke-opacity:1"
     d="m 25.868644,27.266949 c -3.148282,12.02996 -4.785487,50.134888 -6.641949,49.639831 l 0.349576,6.292372 c 0,0 0.534105,4.194166 2.097458,4.194916 11.303376,0.0054 43.05543,-6.696691 42.997881,-5.942797 l -3.495763,45.794489 c 0,0 -0.05005,5.39837 1.747882,6.99153 1.40626,1.2461 4.840859,2.42086 5.59322,0.69915 6.44517,-14.74916 1.517976,-40.499379 5.243645,-59.427965 3.293367,-16.732234 -3.258015,-41.860414 1.048728,-53.834746 0.56465,-1.569935 -3.26452,-1.406638 -4.894068,-1.048729 -1.707189,0.374961 -4.194915,3.146186 -4.194915,3.146186 l 2.097458,37.754238 c 0,0 -0.292405,4.234485 -1.398305,5.942796 -1.355185,2.093389 -5.942797,4.544492 -5.942797,4.544492 -1.134228,-0.567114 -19.158423,4.443993 -27.266949,2.447034 -1.381106,-0.340137 -3.495763,-2.447034 -3.495763,-2.447034 -1.366522,-0.956566 3.868494,-27.765865 4.194915,-39.152543 0.05009,-1.747163 -3.146186,-4.194915 -3.146186,-4.194915 0,0 -4.464519,-3.039664 -4.894068,-1.398305 z"
     id="path2987"
     inkscape:connector-curvature="0"
     sodipodi:nodetypes="sccsscsssssccscssscs" />
</svg>
