<?xml version="1.0" encoding="UTF-8" standalone="no"?>
<!-- Created with Inkscape (http://www.inkscape.org/) -->

<svg
   xmlns:dc="http://purl.org/dc/elements/1.1/"
   xmlns:cc="http://creativecommons.org/ns#"
   xmlns:rdf="http://www.w3.org/1999/02/22-rdf-syntax-ns#"
   xmlns:svg="http://www.w3.org/2000/svg"
   xmlns="http://www.w3.org/2000/svg"
   xmlns:sodipodi="http://sodipodi.sourceforge.net/DTD/sodipodi-0.dtd"
   xmlns:inkscape="http://www.inkscape.org/namespaces/inkscape"
   id="svg2"
   version="1.1"
   inkscape:version="0.48.4 r9939"
   width="111"
   height="171"
   sodipodi:docname="5.jpg">
  <metadata
     id="metadata8">
    <rdf:RDF>
      <cc:Work
         rdf:about="">
        <dc:format>image/svg+xml</dc:format>
        <dc:type
           rdf:resource="http://purl.org/dc/dcmitype/StillImage" />
        <dc:title></dc:title>
      </cc:Work>
    </rdf:RDF>
  </metadata>
  <defs
     id="defs6" />
  <sodipodi:namedview
     pagecolor="#ffffff"
     bordercolor="#666666"
     borderopacity="1"
     objecttolerance="10"
     gridtolerance="10"
     guidetolerance="10"
     inkscape:pageopacity="0"
     inkscape:pageshadow="2"
     inkscape:window-width="1366"
     inkscape:window-height="711"
     id="namedview4"
     showgrid="false"
     inkscape:zoom="3.9035602"
     inkscape:cx="55.5"
     inkscape:cy="85.5"
     inkscape:window-x="0"
     inkscape:window-y="27"
     inkscape:window-maximized="1"
     inkscape:current-layer="svg2" />
  <path
     style="fill:none;stroke:#000000;stroke-width:1px;stroke-linecap:butt;stroke-linejoin:miter;stroke-opacity:1"
     d="m 70.448509,33.177098 -33.302931,3.074117 c 0.603775,-0.05573 -2.78871,26.605702 -2.561764,35.864696 0.03654,1.490861 4.098822,1.793234 4.098822,1.793234 0,0 7.626651,-1.937316 11.527938,-2.049411 3.610305,-0.103734 10.759409,1.280882 10.759409,1.280882 l 11.015585,2.049411 8.966174,5.123528 c 0,0 5.701367,4.878296 7.172939,8.197645 1.498191,3.379392 1.280882,11.015585 1.280882,11.015585 l 0,8.197645 -1.793235,7.68529 c 0,0 -1.61581,5.63923 -3.330293,7.94147 -1.848104,2.48167 -7.172939,5.89206 -7.172939,5.89206 l -8.197645,4.86735 -8.709998,2.56176 -11.271761,1.79324 -12.040291,2.04941 -9.22235,0.51235 c 0,0 -6.080675,1.7554 -8.709998,0.51235 -1.050028,-0.49642 -2.049411,-2.81794 -2.049411,-2.81794 0,0 -1.61616,-6.60735 0,-9.22235 0.501922,-0.81213 2.561764,-1.28088 2.561764,-1.28088 l 13.577349,1.02471 9.478527,-0.51236 13.577349,-2.30558 6.40441,-1.28089 9.99088,-5.3797 4.098822,-5.63588 2.81794,-6.40441 0,-7.42912 c 0,0 -0.945049,-4.433687 -2.305587,-6.148229 -1.33967,-1.688245 -5.635881,-4.611176 -5.635881,-4.611176 0,0 -3.443175,-2.116976 -5.635881,-3.074116 -2.563572,-1.119027 -8.197645,-1.793235 -8.197645,-1.793235 l -9.734703,1.024706 -11.015585,2.049411 -6.916762,2.049411 c 0,0 -2.910667,1.208167 -4.098823,0.512353 -2.148307,-1.258103 -2.81794,-6.916763 -2.81794,-6.916763 l 0,-7.941468 1.793235,-8.709998 1.024705,-14.858231 0.768529,-8.453821 1.280882,-7.172939 3.58647,-5.379705 c 0,0 3.193049,-2.68045 5.123528,-3.330293 3.326996,-1.119942 10.503232,-0.768529 10.503232,-0.768529 0,0.344023 17.972916,-2.313088 25.361464,-2.049411 1.526569,0.05448 2.049411,4.098822 2.049411,4.098822 0,0 0.606971,2.248521 0,3.074117 -0.84789,1.153292 -4.098823,1.280882 -4.098823,1.280882 z"
     id="path2987"
     inkscape:connector-curvature="0"
     sodipodi:nodetypes="csscscccscccsccccccscscccccccccscsccccscccccccscscsc" />
</svg>
