<?xml version="1.0" encoding="UTF-8" standalone="no"?>
<!-- Created with Inkscape (http://www.inkscape.org/) -->

<svg
   xmlns:dc="http://purl.org/dc/elements/1.1/"
   xmlns:cc="http://creativecommons.org/ns#"
   xmlns:rdf="http://www.w3.org/1999/02/22-rdf-syntax-ns#"
   xmlns:svg="http://www.w3.org/2000/svg"
   xmlns="http://www.w3.org/2000/svg"
   xmlns:sodipodi="http://sodipodi.sourceforge.net/DTD/sodipodi-0.dtd"
   xmlns:inkscape="http://www.inkscape.org/namespaces/inkscape"
   id="svg2"
   version="1.1"
   inkscape:version="0.48.4 r9939"
   width="102"
   height="171"
   sodipodi:docname="6.jpg">
  <metadata
     id="metadata8">
    <rdf:RDF>
      <cc:Work
         rdf:about="">
        <dc:format>image/svg+xml</dc:format>
        <dc:type
           rdf:resource="http://purl.org/dc/dcmitype/StillImage" />
        <dc:title></dc:title>
      </cc:Work>
    </rdf:RDF>
  </metadata>
  <defs
     id="defs6" />
  <sodipodi:namedview
     pagecolor="#ffffff"
     bordercolor="#666666"
     borderopacity="1"
     objecttolerance="10"
     gridtolerance="10"
     guidetolerance="10"
     inkscape:pageopacity="0"
     inkscape:pageshadow="2"
     inkscape:window-width="1366"
     inkscape:window-height="711"
     id="namedview4"
     showgrid="false"
     inkscape:zoom="1.9517801"
     inkscape:cx="51"
     inkscape:cy="65.373485"
     inkscape:window-x="0"
     inkscape:window-y="27"
     inkscape:window-maximized="1"
     inkscape:current-layer="svg2" />
  <path
     style="fill:none;stroke:#000000;stroke-width:1px;stroke-linecap:butt;stroke-linejoin:miter;stroke-opacity:1"
     d="m 38.682636,70.835029 c 2.366074,2.813082 6.335636,0.380033 9.99088,0.768529 4.654798,0.494733 9.537393,1.222011 13.577349,3.586469 3.387694,1.98271 6.260675,5.039768 8.197644,8.453821 1.788753,3.152811 2.817941,10.503233 2.817941,10.503233 0,0 0.572013,6.032699 0,8.966169 -0.652503,3.34625 -3.842646,9.47853 -3.842646,9.47853 l -6.148234,9.47853 -6.660586,7.17294 -7.941468,6.40441 -7.429116,2.81794 -7.429116,0.25617 c 0,0 -3.829516,-0.28343 -5.379704,-1.28088 -2.456316,-1.58049 -5.379704,-6.91676 -5.379704,-6.91676 l -4.867352,-10.50323 -1.280882,-9.73471 1.537059,-11.784111 2.561764,-12.04029 c 0,0 1.723833,-10.211917 3.330293,-15.114408 1.511911,-4.613953 5.892057,-13.321172 5.892057,-13.321172 0,0 2.851243,-6.270168 4.611175,-9.222351 1.693277,-2.840372 3.749952,-5.39812 5.695374,-8.122612 2.078221,-2.910471 3.34307,-6.841126 6.344917,-8.78503 2.250672,-1.457466 7.941468,-1.280882 7.941468,-1.280882 0,0 3.529295,-0.184139 4.867352,0.768529 1.182558,0.841957 2.23433,2.402806 2.049411,3.842646 -0.192444,1.498434 -1.690209,2.724375 -3.074117,3.330293 -1.486239,0.650722 -3.297855,-0.411131 -4.867351,0 -1.516427,0.39723 -3.062068,1.129798 -4.098823,2.305588 -1.646533,1.867343 -2.81794,6.916763 -2.81794,6.916763 l -3.58647,7.172939 -3.586469,7.941468 c 0,0 -3.051737,5.531486 -1.024706,7.941469 z"
     id="path2987"
     inkscape:connector-curvature="0"
     sodipodi:nodetypes="sssscsccccccscccccscssscssssscccs" />
  <path
     style="fill:none;stroke:#000000;stroke-width:1px;stroke-linecap:butt;stroke-linejoin:miter;stroke-opacity:1"
     d="m 47.392634,81.338261 7.685291,2.049411 6.660587,3.58647 c 0,0 2.002955,2.046069 2.561764,3.330293 0.62174,1.42885 0.768529,4.611175 0.768529,4.611175 0,0 0.360427,4.300253 0,6.40441 -0.259907,1.51733 -1.537058,4.355 -1.537058,4.355 0,0 -1.965401,3.31989 -3.105196,4.85181 -1.189981,1.59937 -3.811567,4.37054 -3.811567,4.37054 l -3.842646,3.58647 -2.561764,2.81794 -4.354999,2.56176 -4.611175,1.28088 -4.098822,0 -5.635881,-1.53705 -3.074117,-3.58647 -1.793235,-6.14824 0,-5.63588 -0.15273,-6.40441 1.177436,-5.123525 2.561764,-4.354999 3.586469,-4.611175 c 0,0 1.939918,-2.727172 3.252595,-3.723661 1.20612,-0.915598 4.098822,-1.958839 4.098822,-1.958839 l 2.639463,-0.465734 z"
     id="path2989"
     inkscape:connector-curvature="0"
     sodipodi:nodetypes="cccscscsccccccccccccccsccc" />
</svg>
