<?xml version="1.0" encoding="UTF-8" standalone="no"?>
<!-- Created with Inkscape (http://www.inkscape.org/) -->

<svg
   xmlns:dc="http://purl.org/dc/elements/1.1/"
   xmlns:cc="http://creativecommons.org/ns#"
   xmlns:rdf="http://www.w3.org/1999/02/22-rdf-syntax-ns#"
   xmlns:svg="http://www.w3.org/2000/svg"
   xmlns="http://www.w3.org/2000/svg"
   xmlns:sodipodi="http://sodipodi.sourceforge.net/DTD/sodipodi-0.dtd"
   xmlns:inkscape="http://www.inkscape.org/namespaces/inkscape"
   id="svg2"
   version="1.1"
   inkscape:version="0.48.4 r9939"
   width="108"
   height="150"
   sodipodi:docname="7.jpg">
  <metadata
     id="metadata8">
    <rdf:RDF>
      <cc:Work
         rdf:about="">
        <dc:format>image/svg+xml</dc:format>
        <dc:type
           rdf:resource="http://purl.org/dc/dcmitype/StillImage" />
        <dc:title></dc:title>
      </cc:Work>
    </rdf:RDF>
  </metadata>
  <defs
     id="defs6" />
  <sodipodi:namedview
     pagecolor="#ffffff"
     bordercolor="#666666"
     borderopacity="1"
     objecttolerance="10"
     gridtolerance="10"
     guidetolerance="10"
     inkscape:pageopacity="0"
     inkscape:pageshadow="2"
     inkscape:window-width="1366"
     inkscape:window-height="677"
     id="namedview4"
     showgrid="false"
     inkscape:zoom="3.1466667"
     inkscape:cx="54"
     inkscape:cy="75"
     inkscape:window-x="0"
     inkscape:window-y="28"
     inkscape:window-maximized="1"
     inkscape:current-layer="svg2" />
  <path
     style="fill:none;stroke:#000000;stroke-width:1px;stroke-linecap:butt;stroke-linejoin:miter;stroke-opacity:1"
     d="m 59.745763,82.309322 -13.347458,33.368648 -3.177966,1.90678 -3.813559,0 c 0,0 -3.427566,-1.87061 -2.86017,-3.17797 3.291224,-7.58342 15.691801,-28.94558 13.347458,-30.508475 L 20.338983,76.90678 c 0,0 -2.605463,-3.710216 -2.224576,-5.720339 0.34891,-1.841367 3.813559,-4.131356 3.813559,-4.131356 l 8.898305,0.317796 10.805085,5.084746 7.627119,0.635593 c 0,0 7.578387,-1.396782 8.262711,-4.449152 2.393669,-10.676757 5.762217,-34.582466 6.673729,-34.322034 L 32.415254,30.508475 c 0,0 -1.19838,-2.692363 -1.271186,-4.131356 -0.05459,-1.078921 -0.4256,-2.975685 0.635593,-3.177967 17.903424,-3.412705 28.040419,-1.760538 38.453391,0.317797 8.512237,1.698966 6.138647,2.524403 6.038135,3.813559 -0.126035,1.616505 -0.95339,3.81356 -0.95339,3.81356 -5.169553,13.559322 -4.292023,25.211864 -8.262712,37.817796 l 2.224576,1.90678 c 0,1.280183 6.515923,0.2054 9.533899,0.95339 1.927999,0.477844 2.224576,1.90678 2.224576,1.90678 l 0,2.860169 c 0,0 -3.375605,3.952763 -5.720339,4.766949 -3.804007,1.320905 -12.076272,-0.317796 -12.076272,-0.317796 z"
     id="path2989"
     inkscape:connector-curvature="0"
     sodipodi:nodetypes="ccccsccsccccsccsssscccsccscc" />
</svg>
