<?xml version="1.0" encoding="UTF-8" standalone="no"?>
<!-- Created with Inkscape (http://www.inkscape.org/) -->

<svg
   xmlns:dc="http://purl.org/dc/elements/1.1/"
   xmlns:cc="http://creativecommons.org/ns#"
   xmlns:rdf="http://www.w3.org/1999/02/22-rdf-syntax-ns#"
   xmlns:svg="http://www.w3.org/2000/svg"
   xmlns="http://www.w3.org/2000/svg"
   xmlns:sodipodi="http://sodipodi.sourceforge.net/DTD/sodipodi-0.dtd"
   xmlns:inkscape="http://www.inkscape.org/namespaces/inkscape"
   id="svg2"
   version="1.1"
   inkscape:version="0.48.4 r9939"
   width="117"
   height="141"
   sodipodi:docname="8.jpg">
  <metadata
     id="metadata8">
    <rdf:RDF>
      <cc:Work
         rdf:about="">
        <dc:format>image/svg+xml</dc:format>
        <dc:type
           rdf:resource="http://purl.org/dc/dcmitype/StillImage" />
        <dc:title></dc:title>
      </cc:Work>
    </rdf:RDF>
  </metadata>
  <defs
     id="defs6" />
  <sodipodi:namedview
     pagecolor="#ffffff"
     bordercolor="#666666"
     borderopacity="1"
     objecttolerance="10"
     gridtolerance="10"
     guidetolerance="10"
     inkscape:pageopacity="0"
     inkscape:pageshadow="2"
     inkscape:window-width="1366"
     inkscape:window-height="677"
     id="namedview4"
     showgrid="false"
     inkscape:zoom="3.3475177"
     inkscape:cx="58.5"
     inkscape:cy="70.5"
     inkscape:window-x="0"
     inkscape:window-y="28"
     inkscape:window-maximized="1"
     inkscape:current-layer="svg2" />
  <path
     style="fill:none;stroke:#000000;stroke-width:1px;stroke-linecap:butt;stroke-linejoin:miter;stroke-opacity:1"
     d="m 54.069915,29.872881 c 0,0 -6.560116,-1.379508 -9.559322,-0.298729 -2.12386,0.765344 -5.07839,4.480933 -5.07839,4.480933 l -2.987288,7.169491 0,6.273305 3.584746,5.974577 2.987288,6.273305 4.779661,4.480932 7.169492,1.194915 10.156779,0 5.974577,-2.688559 3.286017,-3.286017 2.091101,-9.559322 c 0,0 0.820129,-4.049938 0.298729,-5.974576 -0.808839,-2.985661 -5.07839,-7.76695 -5.07839,-7.76695 0,0 -2.641117,-3.293677 -4.480932,-4.182203 -1.813404,-0.875772 -5.974576,-0.896186 -5.974576,-0.896186 z"
     id="path2987"
     inkscape:connector-curvature="0"
     sodipodi:nodetypes="cscccccccccccscscc" />
  <path
     style="fill:none;stroke:#000000;stroke-width:1px;stroke-linecap:butt;stroke-linejoin:miter;stroke-opacity:1"
     d="m 57.057203,74.682203 c 0,0 -4.947118,-0.878832 -7.169491,0 -2.030852,0.803096 -4.779661,4.480933 -4.779661,4.480933 0,0 -4.159024,3.588152 -5.377119,5.974576 -1.296339,2.539717 -1.792373,8.364407 -1.792373,8.364407 l 0,5.377118 2.987288,7.169493 4.182204,3.28602 c 0,0 4.078956,3.45621 6.572034,4.1822 2.294524,0.66817 7.169491,0 7.169491,0 l 8.065678,-0.89619 6.870763,-2.68856 5.377119,-5.07839 2.688559,-7.766946 0,-7.766949 -3.584746,-6.273305 -6.870763,-5.377119 -7.46822,-2.688559 z"
     id="path2989"
     inkscape:connector-curvature="0"
     sodipodi:nodetypes="cscsccccscccccccccc" />
  <path
     style="fill:none;stroke:#000000;stroke-width:1px;stroke-linecap:butt;stroke-linejoin:miter;stroke-opacity:1"
     d="m 42.71822,20.612288 -5.675847,2.091102 -5.07839,5.07839 -3.286017,5.377118 -2.091102,9.858051 0,8.663136 1.493644,5.974576 4.480933,4.779661 4.480932,4.480932 c 0,0 4.252231,1.982362 4.182203,3.883475 C 41.130695,73.347397 35.25,75.57839 35.25,75.57839 c 0,0 -3.894112,3.582855 -4.779661,5.974576 -1.003267,2.709659 -0.298729,8.663136 -0.298729,8.663136 l 0,6.273305 0,6.870763 3.286017,7.76695 3.584746,6.57203 5.377119,3.28602 7.169491,2.38983 c 0,0 4.694447,1.82408 7.169492,2.0911 2.877872,0.31048 8.663135,-0.59746 8.663135,-0.59746 0,0 6.030012,-0.20778 8.663136,-1.49364 2.660349,-1.29915 6.572034,-5.97458 6.572034,-5.97458 0,0 4.448336,-3.39193 5.974576,-5.67584 1.54121,-2.30631 2.987288,-7.76695 2.987288,-7.76695 l 1.792373,-10.75424 c 0,0 0.920403,-6.314139 0,-9.260593 -0.938893,-3.005647 -5.377119,-7.76695 -5.377119,-7.76695 l -4.779661,-5.377118 c 0,0 -2.787199,-2.527863 -2.688559,-4.182204 0.176811,-2.965379 4.400003,-4.188048 5.675847,-6.870762 1.3084,-2.75117 1.792373,-8.961865 1.792373,-8.961865 l -1.194915,-9.858051 -3.883474,-8.961864 -4.779662,-5.675847 c 0,0 -3.399108,-3.813077 -5.675847,-4.779661 -2.672268,-1.134505 -8.663136,-0.896187 -8.663136,-0.896187 l -7.46822,0 -5.974577,-0.298729 z"
     id="path2991"
     inkscape:connector-curvature="0"
     sodipodi:nodetypes="cccccccccscscccccccscscsccsccssccccscccc" />
</svg>
