<?xml version="1.0" encoding="UTF-8" standalone="no"?>
<!-- Created with Inkscape (http://www.inkscape.org/) -->

<svg
   xmlns:dc="http://purl.org/dc/elements/1.1/"
   xmlns:cc="http://creativecommons.org/ns#"
   xmlns:rdf="http://www.w3.org/1999/02/22-rdf-syntax-ns#"
   xmlns:svg="http://www.w3.org/2000/svg"
   xmlns="http://www.w3.org/2000/svg"
   xmlns:sodipodi="http://sodipodi.sourceforge.net/DTD/sodipodi-0.dtd"
   xmlns:inkscape="http://www.inkscape.org/namespaces/inkscape"
   id="svg2"
   version="1.1"
   inkscape:version="0.48.4 r9939"
   width="111"
   height="141"
   sodipodi:docname="9.jpg">
  <metadata
     id="metadata8">
    <rdf:RDF>
      <cc:Work
         rdf:about="">
        <dc:format>image/svg+xml</dc:format>
        <dc:type
           rdf:resource="http://purl.org/dc/dcmitype/StillImage" />
        <dc:title></dc:title>
      </cc:Work>
    </rdf:RDF>
  </metadata>
  <defs
     id="defs6" />
  <sodipodi:namedview
     pagecolor="#ffffff"
     bordercolor="#666666"
     borderopacity="1"
     objecttolerance="10"
     gridtolerance="10"
     guidetolerance="10"
     inkscape:pageopacity="0"
     inkscape:pageshadow="2"
     inkscape:window-width="1366"
     inkscape:window-height="677"
     id="namedview4"
     showgrid="false"
     inkscape:zoom="3.3475177"
     inkscape:cx="55.5"
     inkscape:cy="70.5"
     inkscape:window-x="0"
     inkscape:window-y="28"
     inkscape:window-maximized="1"
     inkscape:current-layer="svg2" />
  <path
     style="fill:none;stroke:#000000;stroke-width:1px;stroke-linecap:butt;stroke-linejoin:miter;stroke-opacity:1"
     d="m 46.900424,33.457627 c 2.25541,0.298302 6.273305,2.688559 6.273305,2.688559 l 5.07839,3.584746 2.688559,4.480932 0.597458,4.182204 c 0,0 0.137783,4.442018 -1.194916,5.974576 -1.38455,1.592184 -5.974576,2.091102 -5.974576,2.091102 l -5.377119,1.792373 c 0,0 -4.367154,1.059941 -6.572033,0.896186 C 39.936922,58.963926 35.25,57.057203 35.25,57.057203 L 31.665254,52.875 30.17161,46.004237 l 0.298729,-4.779661 2.987288,-3.286017 2.987288,-2.091101 6.273305,-1.792373 c 0,0 2.78614,-0.782102 4.182204,-0.597458 z"
     id="path2987"
     inkscape:connector-curvature="0"
     sodipodi:nodetypes="sccccsccscccccccs" />
  <path
     style="fill:none;stroke:#000000;stroke-width:1px;stroke-linecap:butt;stroke-linejoin:miter;stroke-opacity:1"
     d="m 73.188559,67.811441 c 0,0 0.375521,32.557709 0.597458,48.692799 0.01743,1.26728 -2.688559,2.68856 -2.688559,2.68856 l -2.68856,0.89618 c 0,0 -2.768132,0.97135 -2.987288,0 -2.482645,-11.00361 0.636311,-35.530959 0,-48.692794 0,0 -0.958315,-1.707489 -1.792373,-2.091101 -1.809327,-0.832172 -4.028852,-0.424656 -5.974576,0 -2.568429,0.560561 -4.601062,2.725456 -7.169491,3.286017 -2.334869,0.509587 -7.169492,0 -7.169492,0 L 37.938559,72.292373 32.86017,69.305085 29.275424,64.824153 24.495763,60.641949 c 0,0 -3.461831,-4.707489 -4.182204,-7.46822 -0.804518,-3.083205 0,-9.559322 0,-9.559322 0,0 0.126468,-3.051366 0.896186,-4.779662 C 21.754771,37.610964 23.300847,35.25 23.300847,35.25 l 2.68856,-2.987288 4.182203,-3.286017 2.68856,-1.493644 3.883474,-1.194915 2.987288,-0.896187 3.883475,-0.896186 3.883474,-0.597458 3.584746,-0.298729 c 0,0 2.820592,-0.29906 4.182204,0 1.392523,0.305849 3.883474,1.792373 3.883474,1.792373 l 2.688559,0.896187 4.480933,2.091101 2.688559,1.792373 3.584746,2.688559 c 0,0 2.109058,3.020654 2.38983,4.779661 0.428408,2.683927 -1.194915,8.065678 -1.194915,8.065678 l 0,5.07839 z"
     id="path2989"
     inkscape:connector-curvature="0"
     sodipodi:nodetypes="csccscssscccccscscccccccccscccccsccc" />
</svg>
