<?xml version="1.0" encoding="UTF-8" standalone="no"?>
<!-- Created with Inkscape (http://www.inkscape.org/) -->

<svg
   xmlns:dc="http://purl.org/dc/elements/1.1/"
   xmlns:cc="http://creativecommons.org/ns#"
   xmlns:rdf="http://www.w3.org/1999/02/22-rdf-syntax-ns#"
   xmlns:svg="http://www.w3.org/2000/svg"
   xmlns="http://www.w3.org/2000/svg"
   xmlns:sodipodi="http://sodipodi.sourceforge.net/DTD/sodipodi-0.dtd"
   xmlns:inkscape="http://www.inkscape.org/namespaces/inkscape"
   id="svg2"
   version="1.1"
   inkscape:version="0.48.4 r9939"
   width="114"
   height="105"
   sodipodi:docname="=.jpg">
  <metadata
     id="metadata8">
    <rdf:RDF>
      <cc:Work
         rdf:about="">
        <dc:format>image/svg+xml</dc:format>
        <dc:type
           rdf:resource="http://purl.org/dc/dcmitype/StillImage" />
        <dc:title></dc:title>
      </cc:Work>
    </rdf:RDF>
  </metadata>
  <defs
     id="defs6" />
  <sodipodi:namedview
     pagecolor="#ffffff"
     bordercolor="#666666"
     borderopacity="1"
     objecttolerance="10"
     gridtolerance="10"
     guidetolerance="10"
     inkscape:pageopacity="0"
     inkscape:pageshadow="2"
     inkscape:window-width="1366"
     inkscape:window-height="711"
     id="namedview4"
     showgrid="false"
     inkscape:zoom="6.3572267"
     inkscape:cx="57"
     inkscape:cy="52.5"
     inkscape:window-x="0"
     inkscape:window-y="0"
     inkscape:window-maximized="1"
     inkscape:current-layer="svg2" />
  <path
     style="fill:none;stroke:#000000;stroke-width:1px;stroke-linecap:butt;stroke-linejoin:miter;stroke-opacity:1"
     d="m 16.202034,28.394268 c 2.98425,-1.686641 10.224584,1.10111 10.224584,1.10111 l 7.865065,1.573013 c 0,0 20.060797,1.624899 29.415343,-0.943808 2.722855,-0.747682 6.921256,-3.146026 6.921256,-3.146026 0,0 4.018413,-1.237278 6.292052,0.786507 2.631403,2.342233 1.887616,8.022365 1.887616,8.022365 0,0 -4.750195,3.59924 -7.550463,4.404437 -4.739251,1.362737 -14.62902,0.943808 -14.62902,0.943808 l -34.134382,0.629205 c 0,0 -7.630829,-0.553598 -8.966173,-4.089834 -1.143651,-3.028596 -0.144225,-7.687901 2.674122,-9.280777 z"
     id="path2987"
     inkscape:connector-curvature="0"
     sodipodi:nodetypes="sccscscsccss" />
  <path
     style="fill:none;stroke:#000000;stroke-width:1px;stroke-linecap:butt;stroke-linejoin:miter;stroke-opacity:1"
     d="m 18.404252,59.539925 c 5.411577,0.422205 17.775046,4.113005 17.775046,3.932533 0,0 7.962238,1.746262 12.1122,2.359519 4.864808,0.718893 9.757311,1.944922 15.415527,1.25841 5.277573,-0.640328 9.479282,-3.619273 14.786322,-3.932532 2.983991,-0.176136 8.651571,0.786507 8.651571,0.786507 0,0 1.820576,4.644731 1.258411,6.921257 -0.734265,2.97346 -6.320174,4.563743 -9.280777,5.348243 -9.72818,2.577773 -28.471535,1.010492 -28.471535,1.25841 L 20.921072,73.225138 c 0,0 -6.161099,-0.866517 -7.078558,-3.303327 C 12.51063,66.38427 14.635742,59.24591 18.404252,59.539925 z"
     id="path2989"
     inkscape:connector-curvature="0"
     sodipodi:nodetypes="scssscssccss" />
</svg>
