<?xml version="1.0" encoding="UTF-8" standalone="no"?>
<!-- Created with Inkscape (http://www.inkscape.org/) -->

<svg
   xmlns:dc="http://purl.org/dc/elements/1.1/"
   xmlns:cc="http://creativecommons.org/ns#"
   xmlns:rdf="http://www.w3.org/1999/02/22-rdf-syntax-ns#"
   xmlns:svg="http://www.w3.org/2000/svg"
   xmlns="http://www.w3.org/2000/svg"
   xmlns:sodipodi="http://sodipodi.sourceforge.net/DTD/sodipodi-0.dtd"
   xmlns:inkscape="http://www.inkscape.org/namespaces/inkscape"
   id="svg2999"
   version="1.1"
   inkscape:version="0.48.5 r10040"
   width="150"
   height="147"
   sodipodi:docname="@.jpg">
  <metadata
     id="metadata3005">
    <rdf:RDF>
      <cc:Work
         rdf:about="">
        <dc:format>image/svg+xml</dc:format>
        <dc:type
           rdf:resource="http://purl.org/dc/dcmitype/StillImage" />
        <dc:title></dc:title>
      </cc:Work>
    </rdf:RDF>
  </metadata>
  <defs
     id="defs3003" />
  <sodipodi:namedview
     pagecolor="#ffffff"
     bordercolor="#666666"
     borderopacity="1"
     objecttolerance="10"
     gridtolerance="10"
     guidetolerance="10"
     inkscape:pageopacity="0"
     inkscape:pageshadow="2"
     inkscape:window-width="1366"
     inkscape:window-height="706"
     id="namedview3001"
     showgrid="false"
     inkscape:zoom="3.2108844"
     inkscape:cx="75"
     inkscape:cy="73.5"
     inkscape:window-x="-8"
     inkscape:window-y="-8"
     inkscape:window-maximized="1"
     inkscape:current-layer="svg2999" />
  <path
     style="fill:none;stroke:#000000;stroke-width:1px;stroke-linecap:butt;stroke-linejoin:miter;stroke-opacity:1"
     d="m 74.122881,74.434322 c -2.1296,-0.04505 -3.426444,2.757092 -4.360169,4.67161 -0.875344,1.794814 -1.03271,3.922905 -0.934322,5.917373 0.12158,2.464623 1.868644,7.163136 1.868644,7.163136 0,0 3.643805,1.995627 5.294491,1.245762 1.81809,-0.825913 2.197029,-3.39175 2.802967,-5.294491 0.730665,-2.294405 1.621635,-4.855374 0.934322,-7.163136 -0.819586,-2.751887 -2.735234,-6.479526 -5.605933,-6.540254 z"
     id="path3009"
     inkscape:connector-curvature="0"
     sodipodi:nodetypes="ssscssss" />
  <path
     style="fill:none;stroke:#000000;stroke-width:1px;stroke-linecap:butt;stroke-linejoin:miter;stroke-opacity:1"
     d="m 105.57839,115.23305 c 0,0 4.10669,-2.31076 6.22881,-1.86864 1.73072,0.36057 3.38998,1.78528 4.04873,3.42584 0.73904,1.84052 0.46834,4.2612 -0.62288,5.91738 -1.63659,2.48389 -7.78602,4.36017 -7.78602,4.36017 l -12.769064,3.73728 -8.408898,3.11441 -7.786017,0.93432 -6.540254,0 -5.917373,-1.5572 -6.228814,-2.18008 -6.851695,-4.04873 -5.917373,-6.8517 -4.98305,-5.60593 -4.048729,-6.8517 -4.048729,-7.786012 -1.868644,-7.786017 -1.557204,-9.654661 -0.31144,-8.408899 2.491525,-9.654661 4.048729,-8.408898 5.294492,-5.605932 5.917372,-4.67161 5.917373,-3.425848 6.228814,-2.802966 6.228813,-2.180085 4.671611,-1.245762 7.163135,0.31144 4.67161,1.245763 6.228814,2.180085 6.851695,2.802966 5.294491,3.737288 4.36017,4.360169 5.91737,6.228814 4.04873,6.540254 3.42585,8.408899 0,9.34322 -2.49153,8.097458 -4.98305,7.474576 -6.22881,5.917369 -7.474577,3.73729 -8.408898,0.93432 -4.36017,-3.42584 c 0,0 -2.38793,-1.5329 -3.737288,-1.55721 -1.77368,-0.032 -4.983051,1.86865 -4.983051,1.86865 l -6.228813,0.31144 -5.294492,-2.80297 -3.425847,-4.671609 -3.737289,-5.917372 0,-7.474577 1.868645,-5.294491 3.114406,-6.540254 3.114407,-2.802967 2.802966,-3.425847 3.425848,-2.180085 4.98305,-1.557203 4.048729,-0.311441 6.228814,2.491526 3.425847,3.425847 2.180085,5.294492 0.311441,5.605932 -0.311441,5.605932 -2.491525,3.737288 -1.245763,3.114407 -0.934322,2.802966 1.245763,2.802966 2.802966,0.934322 3.425847,0.311441 3.425848,-1.245763 2.802964,-3.425847 2.18009,-4.36017 1.86864,-8.097457 0,-4.36017 -2.49152,-6.228813 -4.360174,-5.605933 -4.671611,-5.917373 -7.163135,-4.98305 -7.786017,-3.737289 -7.474576,-0.934322 -5.917373,-0.31144 -6.851695,2.491525 -4.048729,2.802966 -4.983051,4.36017 -2.802966,2.802966 -2.491525,4.360169 -2.491526,6.228814 -1.557203,4.67161 -0.311441,5.605932 0.934322,6.228814 1.868644,4.983051 1.868644,7.163137 3.114407,6.22881 4.67161,4.36017 3.737288,4.67161 4.983051,3.11441 6.228814,3.11441 6.851695,2.18008 6.228813,0.31144 5.917373,-0.31144 5.605932,-3.11441 4.983051,-1.24576 z"
     id="path3011"
     inkscape:connector-curvature="0"
     sodipodi:nodetypes="cssscccccccccccccccccccccccccccccccccccccccscccccccccccccccccccccccccccccccccccccccccccccccccccccccccc" />
</svg>
