<?xml version="1.0" encoding="UTF-8" standalone="no"?>
<!-- Created with Inkscape (http://www.inkscape.org/) -->

<svg
   xmlns:dc="http://purl.org/dc/elements/1.1/"
   xmlns:cc="http://creativecommons.org/ns#"
   xmlns:rdf="http://www.w3.org/1999/02/22-rdf-syntax-ns#"
   xmlns:svg="http://www.w3.org/2000/svg"
   xmlns="http://www.w3.org/2000/svg"
   xmlns:sodipodi="http://sodipodi.sourceforge.net/DTD/sodipodi-0.dtd"
   xmlns:inkscape="http://www.inkscape.org/namespaces/inkscape"
   id="svg2"
   version="1.1"
   inkscape:version="0.48.4 r9939"
   width="111"
   height="98"
   sodipodi:docname="a_minus.jpg">
  <metadata
     id="metadata8">
    <rdf:RDF>
      <cc:Work
         rdf:about="">
        <dc:format>image/svg+xml</dc:format>
        <dc:type
           rdf:resource="http://purl.org/dc/dcmitype/StillImage" />
        <dc:title></dc:title>
      </cc:Work>
    </rdf:RDF>
  </metadata>
  <defs
     id="defs6" />
  <sodipodi:namedview
     pagecolor="#ffffff"
     bordercolor="#666666"
     borderopacity="1"
     objecttolerance="10"
     gridtolerance="10"
     guidetolerance="10"
     inkscape:pageopacity="0"
     inkscape:pageshadow="2"
     inkscape:window-width="1366"
     inkscape:window-height="677"
     id="namedview4"
     showgrid="false"
     inkscape:zoom="6.8113143"
     inkscape:cx="55.5"
     inkscape:cy="49"
     inkscape:window-x="0"
     inkscape:window-y="28"
     inkscape:window-maximized="1"
     inkscape:current-layer="svg2" />
  <path
     style="fill:none;stroke:#000000;stroke-width:1px;stroke-linecap:butt;stroke-linejoin:miter;stroke-opacity:1"
     d="m 42.282589,33.69523 -3.817179,2.202218 -4.84488,3.376735 c 0,0 -2.680925,2.198523 -3.523549,3.670363 -0.985256,1.72098 -1.61496,5.725767 -1.61496,5.725767 l -0.293629,4.84488 0.880888,5.138509 2.202218,3.22992 3.523549,2.495848 3.670363,1.468145 4.551251,1.027702 3.817178,0 3.963993,-1.761775 3.523549,-2.642662 3.083106,-3.376734 2.349032,-4.551251 1.761775,-4.551251 0.440443,-5.138509 c 0,0 -0.166861,-2.374202 -0.734072,-3.376734 -0.562585,-0.994356 -2.495848,-2.349033 -2.495848,-2.349033 l -3.083105,-2.495847 -3.22992,-1.174517 -1.61496,-1.027701 -2.642662,-1.027702 -2.936291,-0.440444 z"
     id="path2987"
     inkscape:connector-curvature="0"
     sodipodi:nodetypes="cccsccccccccccccccsccccccc" />
  <path
     style="fill:none;stroke:#000000;stroke-width:1px;stroke-linecap:butt;stroke-linejoin:miter;stroke-opacity:1"
     d="m 43.31029,23.711841 -5.578952,1.468145 -3.817178,1.908589 -2.936291,2.055404 -3.083106,2.642662 -2.789476,3.670363 -2.495847,4.257622 -1.468146,4.404436 -1.468145,5.872582 c 0,0 -0.312907,4.232078 0,6.313026 0.197953,1.316463 1.174516,3.817178 1.174516,3.817178 l 1.61496,3.817178 2.936291,3.22992 3.083105,3.22992 2.349033,2.055403 4.110807,2.349033 2.642662,1.027702 3.22992,0.293629 3.083106,0 3.963992,-1.174516 2.495848,-1.174517 c 0,0 2.93629,-1.61496 3.523549,-2.055403 0.587258,-0.440444 2.202218,-1.174517 2.202218,-1.174517 l 2.349032,-1.908589 c 0,0 2.021817,-0.499108 2.936291,-0.146814 0.904153,0.348318 2.055404,2.055403 2.055404,2.055403 l 2.495847,2.495848 c 0,0 1.387831,1.18497 2.055404,1.761774 0.778517,0.672664 2.202218,1.761775 2.202218,1.761775 0,0 1.467925,1.25923 2.349033,1.61496 0.828095,0.334327 2.642661,0.440443 2.642661,0.440443 l 4.991695,0.440444 3.817178,0 2.936291,-0.587258 c 0,0 2.994237,-0.773654 4.257622,-1.61496 1.066089,-0.709924 2.642661,-2.789477 2.642661,-2.789477 0,0 1.975304,-1.859408 2.789477,-2.936291 0.926279,-1.225164 2.349032,-3.963992 2.349032,-3.963992 l 1.468148,-4.257622 0.29363,-2.202218 -0.29363,-3.083106 -0.440444,-3.22992 -0.880889,-2.202218 c 0,0 -0.655361,-2.834832 -1.321331,-4.110807 -0.59781,-1.145382 -2.349033,-3.083105 -2.349033,-3.083105 0,0 -0.809979,-1.254121 -1.468145,-1.468146 -0.895202,-0.291105 -2.789476,0.440444 -2.789476,0.440444 l -1.321331,1.321331 -0.293629,3.22992 0.587258,3.670363 0.293629,3.523549 c 0,0 0,1.761775 0,2.349033 0,0.587258 -0.587258,3.376735 -0.587258,3.376735 l -0.734073,3.670363 c 0,0 -0.440444,1.468146 -0.734073,2.055404 -0.293629,0.587258 -1.761774,1.468145 -1.761774,1.468145 l -2.349033,1.174517 -1.027702,0.587258 -2.495847,0.293629 -1.174516,0 -2.936291,-0.440444 -1.61496,-1.027702 -1.321331,-1.027701 -1.761775,-2.495848 -0.293629,-1.761774 c 0,0 -0.146814,-1.321331 -0.146814,-2.055404 0,-0.734072 -0.146815,-1.908589 -0.146815,-1.908589 l 0.293629,-4.991694 c 0,0 -0.146814,-2.349033 -0.146814,-3.083106 0,-0.734072 0,-4.110807 0,-4.110807 0,0 0.26637,-3.057735 0,-4.551251 -0.173987,-0.975529 -1.027702,-2.789476 -1.027702,-2.789476 L 68.562392,37.218779 66.360174,33.401601 64.30477,31.052568 62.102552,28.997164 59.166261,27.23539 56.670414,25.473615 52.706421,24.299099 50.357388,24.00547 47.567912,23.418212 z"
     id="path2989"
     inkscape:connector-curvature="0"
     sodipodi:nodetypes="cccccccccscccccccccccsccsccscsccccscsccccccscscccccsccsccccccccccsccscsccccccccccc" />
</svg>
