<?xml version="1.0" encoding="UTF-8" standalone="no"?>
<!-- Created with Inkscape (http://www.inkscape.org/) -->

<svg
   xmlns:dc="http://purl.org/dc/elements/1.1/"
   xmlns:cc="http://creativecommons.org/ns#"
   xmlns:rdf="http://www.w3.org/1999/02/22-rdf-syntax-ns#"
   xmlns:svg="http://www.w3.org/2000/svg"
   xmlns="http://www.w3.org/2000/svg"
   xmlns:sodipodi="http://sodipodi.sourceforge.net/DTD/sodipodi-0.dtd"
   xmlns:inkscape="http://www.inkscape.org/namespaces/inkscape"
   id="svg3127"
   version="1.1"
   inkscape:version="0.48.4 r9939"
   width="128"
   height="130"
   sodipodi:docname="B.jpg">
  <metadata
     id="metadata3133">
    <rdf:RDF>
      <cc:Work
         rdf:about="">
        <dc:format>image/svg+xml</dc:format>
        <dc:type
           rdf:resource="http://purl.org/dc/dcmitype/StillImage" />
        <dc:title></dc:title>
      </cc:Work>
    </rdf:RDF>
  </metadata>
  <defs
     id="defs3131" />
  <sodipodi:namedview
     pagecolor="#ffffff"
     bordercolor="#666666"
     borderopacity="1"
     objecttolerance="10"
     gridtolerance="10"
     guidetolerance="10"
     inkscape:pageopacity="0"
     inkscape:pageshadow="2"
     inkscape:window-width="1366"
     inkscape:window-height="711"
     id="namedview3129"
     showgrid="false"
     inkscape:zoom="3.6307692"
     inkscape:cx="64"
     inkscape:cy="65"
     inkscape:window-x="0"
     inkscape:window-y="0"
     inkscape:window-maximized="1"
     inkscape:current-layer="svg3127" />
  <path
     style="fill:none;stroke:#000000;stroke-width:1px;stroke-linecap:butt;stroke-linejoin:miter;stroke-opacity:1"
     d="m 49.025424,107.96611 c 1.755627,-4.99558 -0.80144,-19.984693 -0.794681,-38.008574 0.0077,-20.417035 1.070105,-40.487197 1.070105,-40.487197 L 32.5,35.805085 c 0,0 -5.149889,2.211035 -6.610169,0.550847 -1.736317,-1.974014 1.652542,-7.711864 1.652542,-7.711864 L 50.402542,17.351695 c 0,0 8.937247,-5.809194 14.046611,-6.334746 6.735877,-0.692855 14.024066,0.922915 19.830508,4.40678 5.080637,3.048382 11.567797,13.495762 11.567797,13.495762 0,0 1.672464,17.379436 -1.652543,25.06356 -0.748084,1.728829 -0.934877,2.526172 -0.826271,4.40678 0.277878,4.811679 6.04121,5.556256 7.987286,9.088983 2.35487,4.274818 4.13136,14.04661 4.13136,14.04661 0,0 0.61018,11.767563 -1.92797,16.800847 -2.54454,5.045949 -12.394066,11.567799 -12.394066,11.567799 l -14.597457,6.05932 -19.830509,2.75424 c 0,0 -10.326228,-0.22734 -14.322034,-4.95763 -2.322648,-2.74958 -4.682203,-10.74153 -4.682203,-10.74153 0,0 -0.182053,-4.232027 1.927966,-3.855928 4.616636,0.82289 7.760322,13.377928 9.364407,8.813568 z"
     id="path3137"
     inkscape:connector-curvature="0"
     sodipodi:nodetypes="ssccsccsscssscscccscss" />
  <path
     style="fill:none;stroke:#000000;stroke-width:1px;stroke-linecap:butt;stroke-linejoin:miter;stroke-opacity:1"
     d="m 65.275424,58.114407 c -4.435057,-10.782414 -5.999433,-27.153414 -10e-7,-34.427966 3.212714,-3.895544 13.495763,-0.275424 13.495763,-0.275424 0,0 5.493815,5.700488 6.61017,9.63983 2.437096,8.59992 0.02195,16.635165 0,16.525424 l -4.40678,7.436441 c 0,0 -13.125907,7.357713 -15.699152,1.101695 z"
     id="path3139"
     inkscape:connector-curvature="0"
     sodipodi:nodetypes="sscsccs" />
  <path
     style="fill:none;stroke:#000000;stroke-width:1px;stroke-linecap:butt;stroke-linejoin:miter;stroke-opacity:1"
     d="m 58.114407,80.974576 c 0,0 8.459232,-5.197169 12.551136,-7.382618 3.987192,-2.129522 7.372389,-5.506176 11.686152,-5.562297 3.616506,-0.04705 7.419019,1.789503 9.915254,4.40678 2.447508,2.566187 3.855932,9.915254 3.855932,9.915254 0,0 1.317282,8.862672 -1.101695,12.118644 -3.365293,4.529724 -9.546923,6.397831 -14.872881,8.262711 -6.058664,2.12143 -14.321767,5.95481 -19.004237,3.30509 -4.68247,-2.64973 -4.212532,-7.759146 -4.682204,-12.118648 -0.465951,-4.324963 1.652543,-12.944916 1.652543,-12.944916 z"
     id="path3141"
     inkscape:connector-curvature="0"
     sodipodi:nodetypes="cssscsszsc" />
</svg>
