<?xml version="1.0" encoding="UTF-8" standalone="no"?>
<!-- Created with Inkscape (http://www.inkscape.org/) -->

<svg
   xmlns:dc="http://purl.org/dc/elements/1.1/"
   xmlns:cc="http://creativecommons.org/ns#"
   xmlns:rdf="http://www.w3.org/1999/02/22-rdf-syntax-ns#"
   xmlns:svg="http://www.w3.org/2000/svg"
   xmlns="http://www.w3.org/2000/svg"
   xmlns:sodipodi="http://sodipodi.sourceforge.net/DTD/sodipodi-0.dtd"
   xmlns:inkscape="http://www.inkscape.org/namespaces/inkscape"
   id="svg2"
   version="1.1"
   inkscape:version="0.48.4 r9939"
   width="90"
   height="133"
   sodipodi:docname="b_minus.jpg">
  <metadata
     id="metadata8">
    <rdf:RDF>
      <cc:Work
         rdf:about="">
        <dc:format>image/svg+xml</dc:format>
        <dc:type
           rdf:resource="http://purl.org/dc/dcmitype/StillImage" />
        <dc:title></dc:title>
      </cc:Work>
    </rdf:RDF>
  </metadata>
  <defs
     id="defs6" />
  <sodipodi:namedview
     pagecolor="#ffffff"
     bordercolor="#666666"
     borderopacity="1"
     objecttolerance="10"
     gridtolerance="10"
     guidetolerance="10"
     inkscape:pageopacity="0"
     inkscape:pageshadow="2"
     inkscape:window-width="1366"
     inkscape:window-height="677"
     id="namedview4"
     showgrid="false"
     inkscape:zoom="3.5488722"
     inkscape:cx="45"
     inkscape:cy="66.5"
     inkscape:window-x="0"
     inkscape:window-y="28"
     inkscape:window-maximized="1"
     inkscape:current-layer="svg2" />
  <path
     style="fill:none;stroke:#000000;stroke-width:1px;stroke-linecap:butt;stroke-linejoin:miter;stroke-opacity:1"
     d="m 27.332627,20.006356 c 0,1.127119 0.563559,17.470339 0.563559,17.470339 l -0.845339,10.707627 -1.690677,13.243644 -2.254238,17.188559 -1.127118,12.116526 -1.127119,7.88983 c 0,0 -1.029783,6.011629 0,8.735169 0.753123,1.99184 4.226695,4.79026 4.226695,4.79026 0,0 4.551667,4.01195 7.326271,5.07203 2.122165,0.8108 6.762712,0.84534 6.762712,0.84534 0,0 5.906008,1.27719 8.735169,0.56356 2.57757,-0.65017 6.762712,-4.2267 6.762712,-4.2267 0,0 4.454342,-3.25372 6.199153,-5.35381 1.667742,-2.00733 3.944915,-5.63559 3.944915,-6.76271 0,-1.12712 1.631376,-5.390686 1.690678,-8.171613 0.08724,-4.091078 -1.972458,-12.116526 -1.972458,-12.116526 0,0 -3.056418,-5.942181 -5.635593,-7.88983 -2.228595,-1.682911 -7.88983,-2.817797 -7.88983,-2.817797 0,0 -5.383289,-1.694936 -8.171611,-1.972457 -2.43188,-0.242045 -4.886054,0.147737 -7.326271,0.281779 -1.316338,0.07231 -4.140898,1.585453 -3.944915,0.28178 0.663771,-4.415388 1.801931,-9.543075 2.254237,-14.370763 0.280508,-2.994005 0.28178,-9.016949 0.28178,-9.016949 l 1.408898,-14.934322 0.56356,-7.608051 c 0,0 0.475235,-3.082769 0,-4.508474 -0.297022,-0.891066 -0.899501,-1.748017 -1.690678,-2.254238 -1.132793,-0.724798 -3.944916,-0.845339 -3.944916,-0.845339 0,0 -2.193969,0.08873 -2.817796,0.845339 -0.600498,0.728316 -0.28178,2.817797 -0.28178,2.817797 z"
     id="path2987"
     inkscape:connector-curvature="0"
     sodipodi:nodetypes="cccccccscscscssscscsssscccsscsc" />
  <path
     style="fill:none;stroke:#000000;stroke-width:1px;stroke-linecap:butt;stroke-linejoin:miter;stroke-opacity:1"
     d="m 47.620763,79.743644 c 0,0 -4.370021,-1.059831 -6.480932,-0.563559 -1.928796,0.453458 -5.072034,3.099576 -5.072034,3.099576 L 33.25,86.506356 l -1.690678,2.817797 -1.690678,4.508474 -0.563559,4.790254 0.563559,4.508479 1.972458,2.81779 3.663135,2.8178 5.353814,1.12712 3.381356,0 c 0,0 4.621961,-1.59006 6.480932,-3.09958 1.560445,-1.26711 3.663136,-4.79025 3.663136,-4.79025 l 1.690678,-2.817799 1.972457,-5.917373 c 0,0 0.297428,-3.299296 -0.281779,-4.790254 -0.70118,-1.804932 -3.663136,-4.508475 -3.663136,-4.508475 l -3.381356,-2.817797 z"
     id="path2989"
     inkscape:connector-curvature="0"
     sodipodi:nodetypes="csccccccccccscccsccc" />
</svg>
