<?xml version="1.0" encoding="UTF-8" standalone="no"?>
<!-- Created with Inkscape (http://www.inkscape.org/) -->

<svg
   xmlns:dc="http://purl.org/dc/elements/1.1/"
   xmlns:cc="http://creativecommons.org/ns#"
   xmlns:rdf="http://www.w3.org/1999/02/22-rdf-syntax-ns#"
   xmlns:svg="http://www.w3.org/2000/svg"
   xmlns="http://www.w3.org/2000/svg"
   xmlns:sodipodi="http://sodipodi.sourceforge.net/DTD/sodipodi-0.dtd"
   xmlns:inkscape="http://www.inkscape.org/namespaces/inkscape"
   id="svg2"
   version="1.1"
   inkscape:version="0.48.4 r9939"
   width="126"
   height="132"
   sodipodi:docname="C.jpg">
  <metadata
     id="metadata8">
    <rdf:RDF>
      <cc:Work
         rdf:about="">
        <dc:format>image/svg+xml</dc:format>
        <dc:type
           rdf:resource="http://purl.org/dc/dcmitype/StillImage" />
        <dc:title></dc:title>
      </cc:Work>
    </rdf:RDF>
  </metadata>
  <defs
     id="defs6" />
  <sodipodi:namedview
     pagecolor="#ffffff"
     bordercolor="#666666"
     borderopacity="1"
     objecttolerance="10"
     gridtolerance="10"
     guidetolerance="10"
     inkscape:pageopacity="0"
     inkscape:pageshadow="2"
     inkscape:window-width="1366"
     inkscape:window-height="677"
     id="namedview4"
     showgrid="false"
     inkscape:zoom="3.5757576"
     inkscape:cx="63"
     inkscape:cy="66"
     inkscape:window-x="0"
     inkscape:window-y="28"
     inkscape:window-maximized="1"
     inkscape:current-layer="svg2" />
  <path
     style="fill:none;stroke:#000000;stroke-width:1px;stroke-linecap:butt;stroke-linejoin:miter;stroke-opacity:1"
     d="m 89.491525,28.805085 -2.516949,-3.076271 -4.754237,-3.076272 -4.754237,-2.237288 -4.194916,-0.279661 -6.152542,1.118644 -4.194915,1.118644 -4.194915,1.398305 -5.31356,1.677966 -3.635593,2.237289 -4.194915,2.79661 -3.915254,2.79661 -1.677967,2.237288 -3.076271,4.194915 -1.398305,1.957627 -3.355932,3.355933 -1.398305,3.635593 -2.516949,4.754237 -1.957627,5.31356 -0.838983,5.59322 0,4.754237 0,4.754237 0.838983,6.432204 1.677966,4.754237 3.635593,5.033898 3.915254,3.076272 2.79661,2.79661 4.194916,1.677966 4.194915,1.957627 5.59322,1.118648 6.711865,0.83898 5.313559,0.27966 7.271186,0 5.872882,-1.11864 6.711864,-0.838987 4.194915,-1.677966 c 0,0 5.31356,-2.516949 6.152543,-3.635593 0.838983,-1.118644 3.915254,-3.915255 3.915254,-3.915255 0,0 2.239112,-3.033591 3.915252,-3.635593 1.49405,-0.536601 4.75424,0.279661 4.75424,0.279661 0,0 2.2005,1.413523 2.79661,2.516949 0.58279,1.078766 0.55932,3.635594 0.55932,3.635594 l 0,6.99153 c 0,0 -0.81038,2.62131 -1.67796,3.63559 -1.09238,1.27709 -4.19492,2.79661 -4.19492,2.79661 l -5.872881,3.07627 -6.991525,2.79661 -7.271187,2.51695 -5.872881,1.67797 -6.711865,1.3983 c 0,0 -5.313559,0 -6.432203,0 -1.118644,0 -5.313559,-0.83898 -5.313559,-0.83898 l -3.355933,-1.11865 -8.38983,-1.67796 -5.59322,-1.11865 -6.432204,-2.51695 L 30.20339,107.94915 24.050847,104.0339 20.694915,99 c 0,0 -2.79661,-4.194915 -3.076271,-5.59322 -0.279661,-1.398305 -1.398305,-5.31356 -1.398305,-5.31356 l -2.237288,-10.627118 0,-6.991526 1.677966,-8.110169 c 0,0 0.838983,-6.152543 1.398305,-7.271187 0.559322,-1.118644 3.355932,-7.550847 3.635593,-9.228813 0.279661,-1.677966 2.516949,-5.033899 3.355932,-6.432204 0.838984,-1.398305 4.754238,-5.313559 4.754238,-5.313559 l 6.152542,-5.872881 5.033898,-3.076272 c 0,0 3.355933,-2.516949 4.474577,-3.355932 1.118644,-0.838983 6.432203,-3.635593 6.432203,-3.635593 0,0 3.322634,-2.834385 5.313559,-3.635593 2.104156,-0.846775 6.711865,-1.118644 6.711865,-1.118644 0,0 5.872881,-1.677966 6.991525,-1.677966 1.118644,0 7.830509,-0.559322 7.830509,-0.559322 l 8.110169,0 c 0,0 5.872882,1.398305 6.991526,2.516949 1.118644,1.118644 4.474576,4.754237 4.474576,4.754237 0,0 3.298896,2.840125 4.194916,4.754237 0.51983,1.110475 0.87057,2.449636 0.55932,3.635594 -0.42133,1.605373 -1.65829,3.052652 -3.07627,3.915254 -1.702541,1.035712 -3.945517,1.625214 -5.872881,1.118644 -1.53534,-0.403534 -3.635594,-3.076271 -3.635594,-3.076271 z"
     id="path2987"
     inkscape:connector-curvature="0"
     sodipodi:nodetypes="ccccccccccccccccccccccccccccccccccccscscsccsccccccsccccccccsccccssscccscscsccscssssc" />
</svg>
