<?xml version="1.0" encoding="UTF-8" standalone="no"?>
<!-- Created with Inkscape (http://www.inkscape.org/) -->

<svg
   xmlns:dc="http://purl.org/dc/elements/1.1/"
   xmlns:cc="http://creativecommons.org/ns#"
   xmlns:rdf="http://www.w3.org/1999/02/22-rdf-syntax-ns#"
   xmlns:svg="http://www.w3.org/2000/svg"
   xmlns="http://www.w3.org/2000/svg"
   xmlns:sodipodi="http://sodipodi.sourceforge.net/DTD/sodipodi-0.dtd"
   xmlns:inkscape="http://www.inkscape.org/namespaces/inkscape"
   id="svg2"
   version="1.1"
   inkscape:version="0.48.5 r10040"
   width="84"
   height="84"
   sodipodi:docname="c_minus.jpg">
  <metadata
     id="metadata8">
    <rdf:RDF>
      <cc:Work
         rdf:about="">
        <dc:format>image/svg+xml</dc:format>
        <dc:type
           rdf:resource="http://purl.org/dc/dcmitype/StillImage" />
        <dc:title></dc:title>
      </cc:Work>
    </rdf:RDF>
  </metadata>
  <defs
     id="defs6" />
  <sodipodi:namedview
     pagecolor="#ffffff"
     bordercolor="#666666"
     borderopacity="1"
     objecttolerance="10"
     gridtolerance="10"
     guidetolerance="10"
     inkscape:pageopacity="0"
     inkscape:pageshadow="2"
     inkscape:window-width="1366"
     inkscape:window-height="706"
     id="namedview4"
     showgrid="false"
     inkscape:zoom="5.6190476"
     inkscape:cx="24.888588"
     inkscape:cy="42.330428"
     inkscape:window-x="-8"
     inkscape:window-y="-8"
     inkscape:window-maximized="1"
     inkscape:current-layer="svg2" />
  <path
     style="fill:none;stroke:#000000;stroke-width:1px;stroke-linecap:butt;stroke-linejoin:miter;stroke-opacity:1"
     d="M 50.720339,10.322034 47.338983,8.898305 45.381356,8.7203389 c 0,0 -2.035146,-0.1907102 -3.025424,0 -0.941084,0.1812363 -2.669491,1.0677967 -2.669491,1.0677967 l -2.847458,0.8898304 -2.313559,1.601695 c 0,0 -1.616848,0.581989 -2.31356,1.067797 -0.619346,0.431862 -1.601694,1.601695 -1.601694,1.601695 l -3.20339,3.203389 -2.135594,2.31356 -2.491525,3.025423 L 21,26.694915 19.220339,29.364407 c 0,0 -1.601695,1.957627 -1.957627,3.20339 -0.355932,1.245762 -1.067797,3.025423 -1.067797,3.025423 0,0 -1.006787,2.204189 -1.245762,3.381356 -0.248126,1.222243 -0.177967,3.737288 -0.177967,3.737288 0,0 -0.355932,3.025424 -0.355932,3.915255 0,0.88983 0,3.559322 0,3.559322 0,0 0.533899,3.559322 0.711865,4.449152 0.177966,0.889831 1.245762,3.737288 1.245762,3.737288 l 3.20339,4.093221 2.571752,2.217299 1.510092,0.755046 1.824695,0.692126 1.887616,0.503364 2.013456,0.188761 c 0,0 1.258411,0.377523 1.573013,0.377523 0.314603,0 1.321331,0.06292 1.635934,0.125842 0.314602,0.06292 1.698854,0.188761 1.698854,0.188761 l 1.510092,-0.06292 2.282971,0.353181 3.559322,0.355932 3.915254,-0.177966 3.737288,-0.889831 3.20339,-1.067796 2.847458,-1.245763 2.491525,-1.245763 1.601695,-2.313559 0.177966,-1.957627 c 0,0 -0.160186,-1.285777 -0.533898,-1.779661 -0.466711,-0.616789 -1.957627,-1.245763 -1.957627,-1.245763 0,0 -1.588485,-1.036983 -2.491526,-1.067796 -1.25628,-0.04287 -3.559322,1.245762 -3.559322,1.245762 l -3.737288,1.957627 -3.20339,0.889831 -2.669491,0 -3.025424,0 -3.025424,-0.711865 -2.847457,-1.067796 -3.025424,-1.067797 -2.491526,-2.313559 c 0,0 -1.963642,-1.042807 -2.491525,-1.957627 -0.628947,-1.089964 -0.533898,-3.737288 -0.533898,-3.737288 0,0 -0.355932,-4.805085 -0.533899,-5.51695 -0.177966,-0.711864 0.533899,-3.025423 0.533899,-3.025423 0,0 0.355932,-2.491526 0.88983,-3.20339 0.533899,-0.711864 0.889831,-2.135593 0.889831,-2.135593 l 1.779661,-4.449153 1.245762,-2.491525 1.601695,-1.601695 1.957628,-1.245763 L 34.70339,22.779661 37.016949,21 38.974576,20.288136 c 0,0 1.732492,-0.847328 2.669492,-0.889831 1.034951,-0.04695 2.313559,0.355932 3.025424,0.711864 0.711864,0.355933 3.203389,1.601695 3.203389,1.601695 l 3.025424,1.601695 c 0,0 2.024556,2.35721 3.381356,3.025424 0.866328,0.42666 1.882449,0.570226 2.847458,0.533898 0.920274,-0.03464 2.669491,-0.711864 2.669491,-0.711864 0,0 1.694119,-0.964945 2.135593,-1.779661 0.483776,-0.892781 0.355933,-3.025424 0.355933,-3.025424 0,0 -0.280317,-2.611058 -0.889831,-3.737288 -0.738986,-1.365462 -3.20339,-3.381356 -3.20339,-3.381356 l -3.025423,-1.779661 z"
     id="path2987"
     inkscape:connector-curvature="0"
     sodipodi:nodetypes="cccscccsccccccscscscscccccccsscccccccccccscscccccccccscscsccccccccssccsscscsccc" />
</svg>
