<?xml version="1.0" encoding="UTF-8" standalone="no"?>
<!-- Created with Inkscape (http://www.inkscape.org/) -->

<svg
   xmlns:dc="http://purl.org/dc/elements/1.1/"
   xmlns:cc="http://creativecommons.org/ns#"
   xmlns:rdf="http://www.w3.org/1999/02/22-rdf-syntax-ns#"
   xmlns:svg="http://www.w3.org/2000/svg"
   xmlns="http://www.w3.org/2000/svg"
   xmlns:sodipodi="http://sodipodi.sourceforge.net/DTD/sodipodi-0.dtd"
   xmlns:inkscape="http://www.inkscape.org/namespaces/inkscape"
   id="svg2"
   version="1.1"
   inkscape:version="0.48.5 r10040"
   width="135"
   height="144"
   sodipodi:docname="D.jpg">
  <metadata
     id="metadata8">
    <rdf:RDF>
      <cc:Work
         rdf:about="">
        <dc:format>image/svg+xml</dc:format>
        <dc:type
           rdf:resource="http://purl.org/dc/dcmitype/StillImage" />
        <dc:title></dc:title>
      </cc:Work>
    </rdf:RDF>
  </metadata>
  <defs
     id="defs6" />
  <sodipodi:namedview
     pagecolor="#ffffff"
     bordercolor="#666666"
     borderopacity="1"
     objecttolerance="10"
     gridtolerance="10"
     guidetolerance="10"
     inkscape:pageopacity="0"
     inkscape:pageshadow="2"
     inkscape:window-width="1366"
     inkscape:window-height="706"
     id="namedview4"
     showgrid="false"
     inkscape:zoom="4.6354778"
     inkscape:cx="67.5"
     inkscape:cy="72"
     inkscape:window-x="-8"
     inkscape:window-y="-8"
     inkscape:window-maximized="1"
     inkscape:current-layer="svg2" />
  <path
     style="fill:none;stroke:#000000;stroke-width:1px;stroke-linecap:butt;stroke-linejoin:miter;stroke-opacity:1"
     d="m 23.082842,38.509256 c 1.292711,-1.617281 5.608915,-3.020185 5.608915,-3.020185 l 5.608914,-1.72582 4.31455,-0.647182 5.393188,-1.510093 6.687552,-0.647182 8.197645,-0.647183 5.608914,0 6.687553,1.078638 7.766189,0.86291 5.393188,1.72582 6.903279,2.58873 4.746005,2.373002 4.961736,4.098822 3.88309,3.235913 5.17746,5.17746 3.23591,4.098822 2.80446,4.746005 1.72582,4.746005 1.51009,4.746004 0.43146,4.530278 -0.64718,5.608915 -1.5101,5.393187 -2.80445,4.961732 -3.23592,4.961733 -4.746,4.530277 -4.09882,4.098826 -4.314553,3.45164 -5.393188,3.66736 -6.687552,3.23592 -6.256097,2.58873 -6.687552,1.51009 -5.608915,1.07864 -6.04037,0.21572 -5.824642,0 -4.961733,0 -6.687552,-0.21572 -7.76619,-0.21573 -3.45164,0.43145 -5.177459,-0.43145 -3.020185,0 c 0,0 -1.362316,-0.81373 -1.510093,-1.51009 -0.20792,-0.97976 0.323902,-2.14603 1.078638,-2.80446 0.946333,-0.82558 3.667367,-0.86291 3.667367,-0.86291 l 3.883095,-1.07864 5.17746,-0.21573 2.804457,0.21573 2.373003,0 2.804457,0 3.45164,0 2.58873,-0.64718 1.72582,-0.86291 0.647182,-2.15728 -0.647182,-5.17746 -0.647183,-60.403694 -1.72582,-2.58873 c 0,0 -2.32904,-1.54084 -3.667367,-1.72582 -1.299862,-0.179663 -3.883095,0.647183 -3.883095,0.647183 l -2.157275,1.725819 -3.235912,1.510093 -3.45164,1.294365 -4.530277,1.72582 -4.098823,0 -1.941547,-2.157275 -0.86291,-2.373003 c 0,0 -0.247971,-2.385899 0.431455,-3.235912 z"
     id="path2987"
     inkscape:connector-curvature="0"
     sodipodi:nodetypes="sccccccccccccccccccccccccccccccccccccccccsscccccccccccccsccccccccs" />
  <path
     style="fill:none;stroke:#000000;stroke-width:1px;stroke-linecap:butt;stroke-linejoin:miter;stroke-opacity:1"
     d="m 63.423883,42.392351 0.215727,58.246419 1.294365,1.5101 c 0,0 1.119362,1.53942 1.941548,1.94154 0.520799,0.25471 1.72582,0.21573 1.72582,0.21573 l 3.883095,0.21573 4.314549,-0.43146 4.31455,-1.29436 4.530278,-1.51009 3.45164,-2.373006 4.314549,-2.157275 4.961733,-4.31455 3.020183,-2.804457 1.94155,-2.373003 2.373,-3.235912 1.07864,-3.45164 c 0,0 1.23902,-4.272524 1.29436,-6.471825 0.0494,-1.962117 -0.64718,-3.883095 -0.86291,-5.824642 -0.1449,-1.304193 -2.15727,-4.530277 -2.15727,-4.530277 l -3.23591,-4.530278 -3.235916,-3.883095 -3.235912,-3.451639 -3.45164,-2.58873 -3.667367,-3.020185 -5.17746,-2.804458 -3.883095,-1.294365 -3.235913,-0.86291 -3.667367,-0.215727 -3.45164,0.215727 -3.020185,0.431455 z"
     id="path2989"
     inkscape:connector-curvature="0"
     sodipodi:nodetypes="cccsccccccccccccssccccccccccccc" />
</svg>
