<?xml version="1.0" encoding="UTF-8" standalone="no"?>
<!-- Created with Inkscape (http://www.inkscape.org/) -->

<svg
   xmlns:dc="http://purl.org/dc/elements/1.1/"
   xmlns:cc="http://creativecommons.org/ns#"
   xmlns:rdf="http://www.w3.org/1999/02/22-rdf-syntax-ns#"
   xmlns:svg="http://www.w3.org/2000/svg"
   xmlns="http://www.w3.org/2000/svg"
   xmlns:sodipodi="http://sodipodi.sourceforge.net/DTD/sodipodi-0.dtd"
   xmlns:inkscape="http://www.inkscape.org/namespaces/inkscape"
   id="svg2"
   version="1.1"
   inkscape:version="0.48.5 r10040"
   width="87"
   height="147"
   sodipodi:docname="d_minus.jpg">
  <metadata
     id="metadata8">
    <rdf:RDF>
      <cc:Work
         rdf:about="">
        <dc:format>image/svg+xml</dc:format>
        <dc:type
           rdf:resource="http://purl.org/dc/dcmitype/StillImage" />
        <dc:title></dc:title>
      </cc:Work>
    </rdf:RDF>
  </metadata>
  <defs
     id="defs6" />
  <sodipodi:namedview
     pagecolor="#ffffff"
     bordercolor="#666666"
     borderopacity="1"
     objecttolerance="10"
     gridtolerance="10"
     guidetolerance="10"
     inkscape:pageopacity="0"
     inkscape:pageshadow="2"
     inkscape:window-width="1366"
     inkscape:window-height="706"
     id="namedview4"
     showgrid="false"
     inkscape:zoom="6.4217687"
     inkscape:cx="26.374658"
     inkscape:cy="79.936567"
     inkscape:window-x="-8"
     inkscape:window-y="-8"
     inkscape:window-maximized="1"
     inkscape:current-layer="svg2" />
  <path
     style="fill:none;stroke:#000000;stroke-width:1px;stroke-linecap:butt;stroke-linejoin:miter;stroke-opacity:1"
     d="m 32.152385,97.890535 c 0,0 -0.376999,-1.99508 -0.990998,-2.752772 -0.570729,-0.704297 -1.429621,-1.225062 -2.312329,-1.431442 -0.753932,-0.176272 -2.312329,0.220222 -2.312329,0.220222 l -2.092108,0.990998 c 0,0 -1.146168,0.690912 -1.541552,1.21122 -0.577381,0.759809 -1.101109,2.642662 -1.101109,2.642662 l 0,2.862887 c 0,0 0.235517,2.10105 0.880887,2.86288 0.530492,0.62622 2.202218,1.10111 2.202218,1.10111 l 2.202219,-0.22022 1.761774,-0.22022 2.42244,-1.10112 c 0,0 0.776234,-0.71903 1.21122,-3.0831 0.212957,-1.157378 -0.330333,-3.083105 -0.330333,-3.083105 z"
     id="path2987"
     inkscape:connector-curvature="0"
     sodipodi:nodetypes="cssccsccsccccsc" />
  <path
     style="fill:none;stroke:#000000;stroke-width:1px;stroke-linecap:butt;stroke-linejoin:miter;stroke-opacity:1"
     d="M 38.538818,79.391903 37.878152,77.409906 37.217487,75.648132 36.777043,74.106579 36.3366,71.904361 35.896156,70.032475 35.675934,68.16059 35.565823,65.738151 c 0,0 -0.07209,-1.325277 0,-1.981998 0.07385,-0.67274 0.334751,-1.313518 0.440443,-1.981995 0.120916,-0.764764 0.220222,-2.31233 0.220222,-2.31233 l 0.440444,-1.651663 0.330333,-1.651664 0.220222,-1.871886 0.660665,-2.53255 1.101109,-1.871886 1.321331,2.862884 0.660666,3.303327 0.220221,1.321331 0.440444,2.642662 0.220222,2.862883 0.220222,2.42244 0,2.642662 0,2.862884 -0.440444,2.642662 c 0,0 -0.124284,1.807461 -0.440444,2.642661 -0.245172,0.647672 -1.101109,1.761775 -1.101109,1.761775 z"
     id="path2989"
     inkscape:connector-curvature="0"
     sodipodi:nodetypes="ccccccccsscccccccccccccccscc" />
  <path
     style="fill:none;stroke:#000000;stroke-width:1px;stroke-linecap:butt;stroke-linejoin:miter;stroke-opacity:1"
     d="m 37.995763,109.93856 c -1.124119,0.34036 -2.491526,2.49152 -2.491526,2.49152 l -2.180084,2.18009 -3.425848,1.86864 -4.360169,0.93433 -4.671611,0 c 0,0 -3.159517,-0.83969 -4.360169,-1.86865 -1.487298,-1.27462 -3.114407,-4.98305 -3.114407,-4.98305 0,0 -1.812737,-4.69447 -2.180085,-7.16313 -0.198636,-1.33488 0,-4.048734 0,-4.048734 l 0.311441,-5.605932 c 0,0 0.777026,-2.63607 1.557203,-3.737288 0.8074,-1.139644 2.802966,-3.425847 2.802966,-3.425847 0,0 2.618002,-1.903526 4.048729,-2.802967 0.946592,-0.595084 3.114407,-1.245762 3.114407,-1.245762 l 2.180085,-0.934322 2.180085,-1.557204 c 0,0 0.781958,-1.617726 0.934322,-2.491525 0.226625,-1.29968 -0.05344,-3.95751 -0.05344,-3.95751 0,0 -0.547921,-2.70487 -0.676316,-4.341278 -0.09879,-1.259077 -0.03778,-4.508064 -0.03778,-4.508064 l 0.603989,-4.322386 0.60399,-2.725045 0.493878,-7.241056 0.622881,-4.048729 0.622881,-3.114407 0.934322,-3.425847 1.245763,-4.36017 0.934322,-3.737288 c 0,0 0.622882,-0.934322 0.934322,-2.802966 0.311441,-1.868644 0.476179,-3.88396 1.868644,-4.983051 0.656976,-0.51856 2.491526,-0.311441 2.491526,-0.311441 0,0 1.253806,-0.09978 1.868644,0 0.972145,0.157757 2.802966,0.934322 2.802966,0.934322 0,0 1.630671,0.614363 2.180085,1.245763 0.73396,0.843484 1.245762,3.114407 1.245762,3.114407 l 0.934322,2.802966 1.245763,3.737288 c 0,0 0.574783,3.101362 0.622882,4.67161 0.04461,1.45641 -0.311441,4.36017 -0.311441,4.36017 l 0,4.67161 0.311441,6.228814 -0.311441,5.294491 0,4.67161 -0.311441,4.36017 0.311441,4.67161 -0.311441,4.67161 -0.622881,3.114407 -0.934322,4.360169 c 0,0 -0.538171,1.643502 -1.090042,2.802967 -0.223081,0.468686 -0.778602,2.180084 -0.778602,2.180084 l -1.245763,3.425848 c 0,0 -0.855079,1.608089 -0.934322,2.491525 -0.103694,1.15603 0.622881,3.425848 0.622881,3.425848 0,0 1.191273,2.50152 2.180085,3.42585 0.950251,0.88828 3.425848,1.86864 3.425848,1.86864 l 3.114406,2.49153 2.802966,3.73728 1.245763,2.18009 0.622881,2.49152 0,2.49153 c 0,0 0.01784,1.92378 -0.622881,2.49153 -0.626425,0.55508 -2.491525,0.31144 -2.491525,0.31144 l -2.491526,-0.62288 -3.114407,-2.80297 -2.180084,-2.80297 -2.802966,-3.42584 c 0,0 -0.623751,-1.45209 -1.245763,-1.86865 -1.319484,-0.88365 -3.151707,-1.39451 -4.671609,-0.93432 z"
     id="path2991"
     inkscape:connector-curvature="0"
     sodipodi:nodetypes="scccccscsccscscccscscccccccccsscscscccsccccccccccsccscsccccccscccccss" />
</svg>
