<?xml version="1.0" encoding="UTF-8" standalone="no"?>
<!-- Created with Inkscape (http://www.inkscape.org/) -->

<svg
   xmlns:dc="http://purl.org/dc/elements/1.1/"
   xmlns:cc="http://creativecommons.org/ns#"
   xmlns:rdf="http://www.w3.org/1999/02/22-rdf-syntax-ns#"
   xmlns:svg="http://www.w3.org/2000/svg"
   xmlns="http://www.w3.org/2000/svg"
   xmlns:sodipodi="http://sodipodi.sourceforge.net/DTD/sodipodi-0.dtd"
   xmlns:inkscape="http://www.inkscape.org/namespaces/inkscape"
   id="svg2"
   version="1.1"
   inkscape:version="0.48.4 r9939"
   width="126"
   height="123"
   sodipodi:docname="E.jpg">
  <metadata
     id="metadata8">
    <rdf:RDF>
      <cc:Work
         rdf:about="">
        <dc:format>image/svg+xml</dc:format>
        <dc:type
           rdf:resource="http://purl.org/dc/dcmitype/StillImage" />
        <dc:title></dc:title>
      </cc:Work>
    </rdf:RDF>
  </metadata>
  <defs
     id="defs6" />
  <sodipodi:namedview
     pagecolor="#ffffff"
     bordercolor="#666666"
     borderopacity="1"
     objecttolerance="10"
     gridtolerance="10"
     guidetolerance="10"
     inkscape:pageopacity="0"
     inkscape:pageshadow="2"
     inkscape:window-width="1366"
     inkscape:window-height="712"
     id="namedview4"
     showgrid="false"
     inkscape:zoom="5.4269008"
     inkscape:cx="63"
     inkscape:cy="60.759429"
     inkscape:window-x="0"
     inkscape:window-y="0"
     inkscape:window-maximized="1"
     inkscape:current-layer="svg2" />
  <path
     style="fill:none;stroke:#000000;stroke-width:1px;stroke-linecap:butt;stroke-linejoin:miter;stroke-opacity:1"
     d="m 104.47952,23.864228 -67.994608,1.105604 2.02694,39.801722 c 0,0 -2.932234,0.228376 -3.685345,1.289871 -1.030703,1.452757 0,5.34375 0,5.34375 l 2.211207,3.869612 c 0,0 1.79962,0.235963 1.842672,0.921336 0.426578,6.791045 0.368535,22.112068 0.368535,22.112068 0,0 -3.992873,-0.449668 -5.34375,0.737069 -1.05227,0.924413 -2.498276,3.90464 -1.105603,4.05388 22.844899,2.44802 54.774225,0.86429 76.286632,1.1056 4.49364,0.0504 7.23396,-7.935508 4.97522,-12.53017 -1.47553,-3.001483 -4.80791,-2.760071 -7.18642,-2.026939 -2.37489,0.732016 -4.79095,5.712284 -4.79095,5.712284 l -55.46444,1.289871 -1.289871,-18.426724 1.842673,-3.501077 2.948275,-2.211207 c 0,0 30.086333,-1.292517 44.039869,-3.501077 2.605159,-0.412344 4.056981,-4.390878 3.685345,-7.002155 -0.336633,-2.365331 -2.639304,-4.65785 -4.975215,-5.159483 -1.293587,-0.277796 -2.618437,0.691677 -3.685345,1.474138 -1.407906,1.032546 -1.574324,3.943909 -3.31681,4.053879 -11.496959,0.725583 -25.5885,1.614283 -37.95905,1.842673 -0.955346,0.01764 -1.975851,-1.072798 -2.02694,-2.02694 -0.37409,-6.986464 -1.105603,-24.691809 -1.105603,-24.691809 0,0 0.658769,-1.854466 1.28987,-2.579742 0.782865,-0.899686 1.756381,-1.985733 2.948276,-2.026939 19.237565,-0.665078 38.575014,-0.627527 57.122846,-1.105604 1.61173,-0.04154 3.68534,-3.132542 3.68534,-3.132542 0,0 2.14628,-2.056491 1.65841,-3.132543 -0.99047,-2.184576 -7.00216,-1.658406 -7.00216,-1.658406 z"
     id="path2987"
     inkscape:connector-curvature="0"
     sodipodi:nodetypes="cccsccscssssscccccssssssscssscsc" />
</svg>
