<?xml version="1.0" encoding="UTF-8" standalone="no"?>
<!-- Created with Inkscape (http://www.inkscape.org/) -->

<svg
   xmlns:dc="http://purl.org/dc/elements/1.1/"
   xmlns:cc="http://creativecommons.org/ns#"
   xmlns:rdf="http://www.w3.org/1999/02/22-rdf-syntax-ns#"
   xmlns:svg="http://www.w3.org/2000/svg"
   xmlns="http://www.w3.org/2000/svg"
   xmlns:sodipodi="http://sodipodi.sourceforge.net/DTD/sodipodi-0.dtd"
   xmlns:inkscape="http://www.inkscape.org/namespaces/inkscape"
   id="svg2"
   version="1.1"
   inkscape:version="0.48.4 r9939"
   width="84"
   height="93"
   sodipodi:docname="e_minus.jpg">
  <metadata
     id="metadata8">
    <rdf:RDF>
      <cc:Work
         rdf:about="">
        <dc:format>image/svg+xml</dc:format>
        <dc:type
           rdf:resource="http://purl.org/dc/dcmitype/StillImage" />
        <dc:title></dc:title>
      </cc:Work>
    </rdf:RDF>
  </metadata>
  <defs
     id="defs6" />
  <sodipodi:namedview
     pagecolor="#ffffff"
     bordercolor="#666666"
     borderopacity="1"
     objecttolerance="10"
     gridtolerance="10"
     guidetolerance="10"
     inkscape:pageopacity="0"
     inkscape:pageshadow="2"
     inkscape:window-width="1366"
     inkscape:window-height="712"
     id="namedview4"
     showgrid="false"
     inkscape:zoom="7.177514"
     inkscape:cx="42"
     inkscape:cy="46.5"
     inkscape:window-x="0"
     inkscape:window-y="0"
     inkscape:window-maximized="1"
     inkscape:current-layer="svg2" />
  <path
     style="fill:none;stroke:#000000;stroke-width:1px;stroke-linecap:butt;stroke-linejoin:miter;stroke-opacity:1"
     d="m 40.125314,12.888697 -3.483101,0.139324 c 0,0 -1.685449,-0.01766 -2.507832,0.139324 -1.154044,0.2203 -3.343776,1.114592 -3.343776,1.114592 l -3.901072,1.532564 -3.343776,2.368508 -2.78648,3.343776 -2.507832,4.319044 -1.950536,3.901072 -1.39324,5.154989 -0.557296,4.737016 -0.69662,6.130256 0.139324,5.154988 1.253916,7.802145 c 0,0 0.225801,3.434342 0.835944,5.015664 0.834719,2.163363 3.761748,5.851608 3.761748,5.851608 l 5.57296,4.87634 6.408904,3.204452 5.572961,2.08986 c 0,0 4.347903,0.860057 6.548228,0.835944 1.878323,-0.02058 5.57296,-0.835944 5.57296,-0.835944 l 6.687552,-2.08986 5.712285,-2.925804 4.319044,-2.647156 c 0,0 1.817595,-1.250818 1.950536,-2.229184 0.187382,-1.379019 -0.826546,-2.778266 -1.811212,-3.761748 -0.911201,-0.910105 -2.199376,-1.774988 -3.4831,-1.671888 -1.29701,0.104167 -3.204453,2.229184 -3.204453,2.229184 l -4.17972,2.507832 -4.040396,1.950536 c 0,0 -2.704218,1.374499 -4.17972,1.532564 -1.678334,0.179794 -5.015664,-0.69662 -5.015664,-0.69662 l -5.015664,-1.671888 -4.179721,-2.507832 -3.622424,-1.811212 -3.204452,-2.229184 c 0,0 -2.575608,-1.131744 -3.343776,-2.229184 -1.014095,-1.448782 -1.253916,-5.154989 -1.253916,-5.154989 0,0 -0.722603,-2.969831 -0.557296,-4.458368 0.1362,-1.226437 1.253916,-3.4831 1.253916,-3.4831 l 5.433636,-0.69662 5.015664,0.557296 5.154989,0.278648 5.851608,-0.139324 3.761748,-0.139324 5.851608,-0.557296 4.17972,-1.39324 c 0,0 2.94805,-1.608784 4.040397,-2.507832 0.954794,-0.785836 2.647156,-2.368508 2.647156,-2.368508 l 1.671888,-3.343776 c 0,0 0.275311,-2.236536 0.139324,-3.343776 -0.200634,-1.633611 -1.39324,-4.737017 -1.39324,-4.737017 l -1.950536,-3.4831 -3.343777,-4.040396 -3.901072,-3.901072 -3.901072,-2.507832 -5.154988,-1.950536 c 0,0 -1.903745,-0.903455 -2.925804,-1.114592 -1.047051,-0.2163 -3.204452,-0.139324 -3.204452,-0.139324 z"
     id="path2987"
     inkscape:connector-curvature="0"
     sodipodi:nodetypes="ccscccccccccccsccccsccccssscccscccccscsccccccccsccsccccccsc" />
  <path
     style="fill:none;stroke:#000000;stroke-width:1px;stroke-linecap:butt;stroke-linejoin:miter;stroke-opacity:1"
     d="m 24.799673,38.663638 3.343776,0.69662 2.78648,0.417972 3.622424,0.69662 3.761749,0.139324 4.040396,-0.557296 3.761748,-0.557296 3.622424,-0.975268 3.4831,-1.532564 c 0,0 1.372699,-1.045991 1.671888,-1.811212 0.439691,-1.124575 0.373405,-2.474137 0,-3.622425 -0.390681,-1.201415 -2.229184,-3.065128 -2.229184,-3.065128 l -3.4831,-3.343776 -3.4831,-2.229184 -3.4831,-0.975268 c 0,0 -2.571195,-0.835944 -3.901072,-0.835944 -1.329878,0 -3.901073,0.835944 -3.901073,0.835944 l -5.154988,2.368508 c 0,0 -2.289903,1.706079 -3.204452,2.78648 -1.090975,1.288821 -2.647156,4.319044 -2.647156,4.319044 l -1.39324,3.204453 c 0,0 -0.338367,2.245488 0.278648,3.065128 0.539436,0.716585 2.507832,0.975268 2.507832,0.975268 z"
     id="path2989"
     inkscape:connector-curvature="0"
     sodipodi:nodetypes="cccccccccssccccsccsccsc" />
</svg>
