<?xml version="1.0" encoding="UTF-8" standalone="no"?>
<!-- Created with Inkscape (http://www.inkscape.org/) -->

<svg
   xmlns:dc="http://purl.org/dc/elements/1.1/"
   xmlns:cc="http://creativecommons.org/ns#"
   xmlns:rdf="http://www.w3.org/1999/02/22-rdf-syntax-ns#"
   xmlns:svg="http://www.w3.org/2000/svg"
   xmlns="http://www.w3.org/2000/svg"
   xmlns:sodipodi="http://sodipodi.sourceforge.net/DTD/sodipodi-0.dtd"
   xmlns:inkscape="http://www.inkscape.org/namespaces/inkscape"
   id="svg2"
   version="1.1"
   inkscape:version="0.48.4 r9939"
   width="114"
   height="123"
   sodipodi:docname="F.jpg">
  <metadata
     id="metadata8">
    <rdf:RDF>
      <cc:Work
         rdf:about="">
        <dc:format>image/svg+xml</dc:format>
        <dc:type
           rdf:resource="http://purl.org/dc/dcmitype/StillImage" />
        <dc:title></dc:title>
      </cc:Work>
    </rdf:RDF>
  </metadata>
  <defs
     id="defs6" />
  <sodipodi:namedview
     pagecolor="#ffffff"
     bordercolor="#666666"
     borderopacity="1"
     objecttolerance="10"
     gridtolerance="10"
     guidetolerance="10"
     inkscape:pageopacity="0"
     inkscape:pageshadow="2"
     inkscape:window-width="1366"
     inkscape:window-height="712"
     id="namedview4"
     showgrid="false"
     inkscape:zoom="3.8373984"
     inkscape:cx="57"
     inkscape:cy="59.571604"
     inkscape:window-x="0"
     inkscape:window-y="0"
     inkscape:window-maximized="1"
     inkscape:current-layer="svg2" />
  <path
     style="fill:none;stroke:#000000;stroke-width:1px;stroke-linecap:butt;stroke-linejoin:miter;stroke-opacity:1"
     d="m 44.408403,26.075435 c 1.310313,-1.407245 5.159483,-2.579741 5.159483,-2.579741 l 4.790948,-1.658405 7.554956,-2.211207 c 0,0 20.420512,-2.116478 30.404093,-0.368535 1.033861,0.18101 2.948277,1.105604 2.948277,1.105604 0,0 2.621269,2.281328 2.948275,3.869612 0.204279,0.992193 -0.15353,2.12023 -0.737069,2.948275 -0.637863,0.905131 -1.720917,1.471064 -2.764008,1.842673 -1.802048,0.641993 -5.712285,0.552802 -5.712285,0.552802 l -6.449352,-0.921336 c 0,0 -9.583447,-0.716032 -14.188577,0.368534 -5.937878,1.398445 -16.584051,7.739224 -16.584051,7.739224 L 49.567886,62.37608 c 0,0 4.391372,1.033207 6.449353,1.105604 2.397139,0.08433 6.449353,-0.921337 6.449353,-0.921337 l 6.633621,-1.658405 c 0,0 3.719841,-2.024385 5.712284,-1.842672 1.806286,0.164735 3.892175,1.004301 4.790948,2.579741 0.761516,1.334845 0.687196,3.340873 -0.184267,4.606681 -1.591575,2.311777 -5.073905,2.437323 -7.739224,3.31681 -4.555635,1.503242 -14.00431,3.316811 -14.00431,3.316811 l -7.554957,0.737068 -3.132542,21.190732 c 0,0 -0.45585,3.466223 -1.474138,4.790948 -0.706284,0.918829 -2.948276,1.842669 -2.948276,1.842669 0,0 -2.340195,0.61358 -3.501078,0 -1.361931,-0.71984 -2.211206,-3.501074 -2.211206,-3.501074 l 3.31681,-22.296335 c 0,0 -6.807361,0.07326 -9.766163,0.368534 -1.870875,0.186704 -3.214849,-2.56416 -3.501078,-4.422413 -0.210131,-1.364209 0.128257,-3.563304 1.474138,-3.869612 4.634367,-1.054733 12.530172,-1.105603 12.530172,-1.105603 l 1.28987,-35.195042 c 0,0 0.897556,-3.93292 2.211207,-5.34375 z"
     id="path2989"
     inkscape:connector-curvature="0"
     sodipodi:nodetypes="scccscsssccsccsccsssscccscsccsssccs" />
</svg>
