<?xml version="1.0" encoding="UTF-8" standalone="no"?>
<!-- Created with Inkscape (http://www.inkscape.org/) -->

<svg
   xmlns:dc="http://purl.org/dc/elements/1.1/"
   xmlns:cc="http://creativecommons.org/ns#"
   xmlns:rdf="http://www.w3.org/1999/02/22-rdf-syntax-ns#"
   xmlns:svg="http://www.w3.org/2000/svg"
   xmlns="http://www.w3.org/2000/svg"
   xmlns:sodipodi="http://sodipodi.sourceforge.net/DTD/sodipodi-0.dtd"
   xmlns:inkscape="http://www.inkscape.org/namespaces/inkscape"
   id="svg2"
   version="1.1"
   inkscape:version="0.48.4 r9939"
   width="78"
   height="132"
   sodipodi:docname="f_minus.jpg">
  <metadata
     id="metadata8">
    <rdf:RDF>
      <cc:Work
         rdf:about="">
        <dc:format>image/svg+xml</dc:format>
        <dc:type
           rdf:resource="http://purl.org/dc/dcmitype/StillImage" />
        <dc:title></dc:title>
      </cc:Work>
    </rdf:RDF>
  </metadata>
  <defs
     id="defs6" />
  <sodipodi:namedview
     pagecolor="#ffffff"
     bordercolor="#666666"
     borderopacity="1"
     objecttolerance="10"
     gridtolerance="10"
     guidetolerance="10"
     inkscape:pageopacity="0"
     inkscape:pageshadow="2"
     inkscape:window-width="1366"
     inkscape:window-height="677"
     id="namedview4"
     showgrid="false"
     inkscape:zoom="3.5757576"
     inkscape:cx="39"
     inkscape:cy="66"
     inkscape:window-x="0"
     inkscape:window-y="28"
     inkscape:window-maximized="1"
     inkscape:current-layer="svg2" />
  <path
     style="fill:none;stroke:#000000;stroke-width:1px;stroke-linecap:butt;stroke-linejoin:miter;stroke-opacity:1"
     d="M 26.008475,64.042373 C 27.1073,61.832328 27.40678,56.771186 27.40678,56.771186 l 0,-6.432203 0.279661,-7.271186 0.559322,-5.872882 c 0,0 0.292374,-3.972425 0.838983,-5.872881 0.761338,-2.647029 3.355932,-7.550848 3.355932,-7.550848 0,0 2.110015,-4.947119 4.194915,-6.432203 1.878345,-1.337954 6.711865,-1.677966 6.711865,-1.677966 0,0 6.152542,0.279661 6.991525,1.398305 0.838983,1.118644 4.203377,2.666343 5.872881,4.474576 2.104946,2.279859 5.033899,7.830509 5.033899,7.830509 0,0 1.118644,6.991525 1.118644,8.110169 0,1.118644 -0.279661,5.31356 -1.398305,6.152543 -1.118644,0.838983 -4.754238,1.677966 -6.152543,1.677966 -1.398305,0 -1.677966,-7.271187 -1.677966,-7.271187 l -1.957627,-6.152542 c 0,0 -1.279997,-3.304109 -2.79661,-4.194915 -1.609615,-0.945432 -3.896341,-1.057674 -5.59322,-0.279661 -1.932326,0.885965 -3.355933,3.915254 -3.915255,5.033898 -0.559322,1.118644 -2.516949,8.38983 -2.516949,8.38983 l -0.838983,5.872882 0,5.313559 0.838983,4.474576 0.279661,5.593221 c 0,0 0.279661,1.398305 1.398305,1.398305 1.118644,0 8.11017,0 8.11017,0 0,0 4.719789,0.107605 6.152542,1.677966 1.08462,1.188793 1.190158,3.18379 0.838983,4.754237 -0.423311,1.893038 -1.655338,3.821091 -3.355932,4.754237 -1.718177,0.942794 -5.872881,0.279662 -5.872881,0.279662 l -6.152543,0.838983 c 0,0 -3.353337,1.514545 -3.915254,3.076271 -0.742844,2.064572 0.279661,6.711864 0.279661,6.711864 l 0.838983,6.152543 0.838983,6.152542 c 0,0 0.614408,3.781754 -0.279661,5.313564 -0.61269,1.04972 -1.957627,1.95763 -3.076271,1.95763 -1.118644,0 -3.393574,-0.0254 -4.474576,-1.11865 -1.41493,-1.43092 -1.398305,-4.194917 -1.398305,-5.872883 0,-1.677966 -0.279661,-7.550848 -0.279661,-7.550848 l 0,-4.754237 c 0,0 0.172027,-3.512235 -0.559322,-5.033898 -0.742414,-1.544685 -2.124549,-2.826906 -3.635594,-3.635593 -1.257265,-0.672868 -4.194915,-0.838983 -4.194915,-0.838983 0,0 -4.862225,0.01138 -6.152542,-1.677967 -1.244851,-1.629822 -1.046885,-4.389021 0,-6.152542 0.596247,-1.004403 3.076271,-1.677966 3.076271,-1.677966 l 5.59322,0 c 0,0 2.139546,0.417182 3.076271,0 1.145668,-0.510237 1.958597,-1.673606 2.51695,-2.79661 z"
     id="path2989"
     inkscape:connector-curvature="0"
     sodipodi:nodetypes="sccccscscsscsssccssscccccscsssccscccssssccsscssccss" />
</svg>
