<?xml version="1.0" encoding="UTF-8" standalone="no"?>
<!-- Created with Inkscape (http://www.inkscape.org/) -->

<svg
   xmlns:dc="http://purl.org/dc/elements/1.1/"
   xmlns:cc="http://creativecommons.org/ns#"
   xmlns:rdf="http://www.w3.org/1999/02/22-rdf-syntax-ns#"
   xmlns:svg="http://www.w3.org/2000/svg"
   xmlns="http://www.w3.org/2000/svg"
   xmlns:sodipodi="http://sodipodi.sourceforge.net/DTD/sodipodi-0.dtd"
   xmlns:inkscape="http://www.inkscape.org/namespaces/inkscape"
   id="svg2"
   version="1.1"
   inkscape:version="0.48.4 r9939"
   width="117"
   height="123"
   sodipodi:docname="G.jpg">
  <metadata
     id="metadata8">
    <rdf:RDF>
      <cc:Work
         rdf:about="">
        <dc:format>image/svg+xml</dc:format>
        <dc:type
           rdf:resource="http://purl.org/dc/dcmitype/StillImage" />
        <dc:title></dc:title>
      </cc:Work>
    </rdf:RDF>
  </metadata>
  <defs
     id="defs6" />
  <sodipodi:namedview
     pagecolor="#ffffff"
     bordercolor="#666666"
     borderopacity="1"
     objecttolerance="10"
     gridtolerance="10"
     guidetolerance="10"
     inkscape:pageopacity="0"
     inkscape:pageshadow="2"
     inkscape:window-width="1366"
     inkscape:window-height="677"
     id="namedview4"
     showgrid="false"
     inkscape:zoom="3.8373984"
     inkscape:cx="58.5"
     inkscape:cy="61.5"
     inkscape:window-x="0"
     inkscape:window-y="28"
     inkscape:window-maximized="1"
     inkscape:current-layer="svg2" />
  <path
     style="fill:none;stroke:#000000;stroke-width:1px;stroke-linecap:butt;stroke-linejoin:miter;stroke-opacity:1"
     d="m 87.559322,18.241525 -5.993644,-2.084745 -9.120763,-1.302966 -7.817796,-0.78178 c 0,0 -4.905149,0.04505 -7.29661,0.521186 -2.694017,0.536376 -7.817797,2.605932 -7.817797,2.605932 l -5.993644,3.908899 -6.254237,6.254237 -6.254238,9.641949 -3.127118,7.817797 c 0,0 -1.555969,4.730816 -2.084746,7.817796 -0.395972,2.311671 -1.042373,8.07839 -1.042373,8.07839 L 24.23517,71.663136 c 0,0 -0.02939,5.436762 0.521186,8.078389 0.678384,3.254818 3.387712,9.381356 3.387712,9.381356 l 3.908898,6.775424 4.951272,4.169495 c 0,0 4.197914,2.46808 6.51483,3.12712 2.352793,0.66924 7.29661,0.78177 7.29661,0.78177 0,0 5.712941,1.11334 8.599576,1.04238 3.083672,-0.0758 9.120763,-1.56356 9.120763,-1.56356 0,0 6.406442,-1.81677 9.120763,-3.648307 2.393565,-1.615097 4.501804,-3.781969 5.993644,-6.254237 1.135354,-1.8815 2.084746,-6.254237 2.084746,-6.254237 0,0 1.700145,-4.792621 1.824152,-7.29661 0.147655,-2.981501 -1.302966,-8.86017 -1.302966,-8.86017 0,0 -2.264284,-5.598725 -4.430085,-7.557203 -1.700967,-1.53814 -6.254237,-2.866526 -6.254237,-2.866526 l -9.120763,-0.260593 -7.817796,0.521187 -4.430085,1.824152 c 0,0 -2.073626,2.492844 -1.824153,3.908898 0.255767,1.45178 1.753259,2.59271 3.127119,3.127119 C 57.37009,70.563945 61.5,69.57839 61.5,69.57839 c 0,0 2.580234,-0.765035 3.908898,-0.78178 2.027709,-0.02555 4.402356,-0.771367 6.51483,-0.260593 2.230653,0.539348 4.338225,1.819789 5.993645,3.387712 1.417243,1.342335 2.084746,5.472457 2.084746,5.472457 0,0 0.27511,2.807162 0,4.169492 -0.354472,1.755322 -2.084746,4.951271 -2.084746,4.951271 0,0 -0.998836,3.058035 -2.084746,4.169492 -1.167668,1.195139 -4.430085,2.345339 -4.430085,2.345339 l -5.472457,1.042373 -5.993644,1.042372 c 0,0 -3.492991,0.252277 -5.211865,0 -1.794557,-0.263385 -5.211864,-1.563559 -5.211864,-1.563559 l -5.472458,-2.345339 c 0,0 -3.130947,-1.489056 -4.430084,-2.605932 -1.357922,-1.167414 -3.387712,-4.169492 -3.387712,-4.169492 0,0 -2.693767,-3.62459 -3.387712,-5.73305 C 31.7701,75.464366 31.792373,68.536017 31.792373,68.536017 l 0.521186,-7.557203 1.56356,-6.254238 1.824152,-5.733051 3.387712,-7.817796 3.387712,-4.690678 4.430085,-4.951271 4.690677,-4.169492 c 0,0 3.834462,-2.482138 5.993645,-3.127119 1.67291,-0.499724 5.211864,-0.521186 5.211864,-0.521186 l 4.430085,-0.260593 5.993644,-0.260594 6.254237,0.521187 6.514831,1.042373 c 0,0 3.627941,0.976754 5.211864,0.521186 1.838457,-0.528777 3.157836,-1.851231 3.127119,-3.387712 -0.0221,-1.105383 -2.345339,-2.345339 -2.345339,-2.345339 z"
     id="path2987"
     inkscape:connector-curvature="0"
     sodipodi:nodetypes="ccccscccccsccscccscscsscscsccccsscssscscscccsccscsccccccccscccccsscc" />
</svg>
