<?xml version="1.0" encoding="UTF-8" standalone="no"?>
<!-- Created with Inkscape (http://www.inkscape.org/) -->

<svg
   xmlns:dc="http://purl.org/dc/elements/1.1/"
   xmlns:cc="http://creativecommons.org/ns#"
   xmlns:rdf="http://www.w3.org/1999/02/22-rdf-syntax-ns#"
   xmlns:svg="http://www.w3.org/2000/svg"
   xmlns="http://www.w3.org/2000/svg"
   xmlns:sodipodi="http://sodipodi.sourceforge.net/DTD/sodipodi-0.dtd"
   xmlns:inkscape="http://www.inkscape.org/namespaces/inkscape"
   id="svg2"
   version="1.1"
   inkscape:version="0.48.4 r9939"
   width="96"
   height="123"
   sodipodi:docname="g_minus.jpg">
  <metadata
     id="metadata8">
    <rdf:RDF>
      <cc:Work
         rdf:about="">
        <dc:format>image/svg+xml</dc:format>
        <dc:type
           rdf:resource="http://purl.org/dc/dcmitype/StillImage" />
        <dc:title></dc:title>
      </cc:Work>
    </rdf:RDF>
  </metadata>
  <defs
     id="defs6" />
  <sodipodi:namedview
     pagecolor="#ffffff"
     bordercolor="#666666"
     borderopacity="1"
     objecttolerance="10"
     gridtolerance="10"
     guidetolerance="10"
     inkscape:pageopacity="0"
     inkscape:pageshadow="2"
     inkscape:window-width="1366"
     inkscape:window-height="677"
     id="namedview4"
     showgrid="false"
     inkscape:zoom="2.7134504"
     inkscape:cx="48"
     inkscape:cy="66.463757"
     inkscape:window-x="0"
     inkscape:window-y="28"
     inkscape:window-maximized="1"
     inkscape:current-layer="svg2" />
  <path
     style="fill:none;stroke:#000000;stroke-width:1px;stroke-linecap:butt;stroke-linejoin:miter;stroke-opacity:1"
     d="m 54.587732,20.402597 c -1.211822,-0.204838 -2.508199,-0.141886 -3.67992,0.228978 -0.995549,0.315103 -1.907933,0.925089 -2.669163,1.639886 -0.879495,0.825848 -1.575933,1.635758 -2.176879,2.590124 -0.568098,0.902198 -1.318774,2.913949 -1.318774,2.913949 l -0.565897,2.300627 c 0,0 -0.306886,1.422325 -0.368531,2.145265 -0.07209,0.845403 0,2.545413 0,2.545413 0,0 0.320636,2.327862 0.644936,3.206158 0.325083,0.880419 0.485858,1.402352 0.934431,1.976804 0.541062,0.692895 1.34609,1.345878 2.040035,1.671501 0.727313,0.34128 2.392762,0.289496 2.392762,0.289496 l 3.158734,-0.276401 c 0,0 2.524307,-0.514892 3.479846,-1.302966 0.943139,-0.777847 1.713485,-1.99835 2.376953,-3.127119 0.528591,-0.899301 1.255544,-2.866525 1.255544,-2.866525 0,0 1.007785,-3.225082 1.026565,-4.890753 0.01635,-1.450294 -0.797588,-4.277432 -0.797588,-4.277432 0,0 -1.177408,-2.445461 -2.192686,-3.282483 -0.987382,-0.814024 -2.278593,-1.271241 -3.540368,-1.484522 z"
     id="path2987"
     inkscape:connector-curvature="0"
     sodipodi:nodetypes="ssssccscsssccsscscss" />
  <path
     style="fill:none;stroke:#000000;stroke-width:1px;stroke-linecap:butt;stroke-linejoin:miter;stroke-opacity:1"
     d="m 40.001059,92.380297 c 0,0 0.459091,1.669956 0.260593,2.475635 -0.224767,0.912302 -1.563559,2.345339 -1.563559,2.345339 l -1.824152,1.172669 c 0,0 -1.738318,0.414935 -2.345339,0.651484 -0.813398,0.316971 -2.605932,0.260593 -2.605932,0.260593 0,0 -2.00847,0.145059 -2.996823,0 -0.897278,-0.131693 -2.605932,-0.78178 -2.605932,-0.78178 0,0 -1.566594,-0.600359 -2.345339,-0.912076 -0.741308,-0.296732 -1.593935,-0.410265 -2.215042,-0.912076 -0.655962,-0.529972 -1.162044,-1.286249 -1.433263,-2.084746 -0.265768,-0.78245 -0.333124,-1.674561 -0.130296,-2.475636 0.224881,-0.888176 0.779981,-1.702959 1.433262,-2.345339 0.610794,-0.600603 2.215043,-1.302966 2.215043,-1.302966 l 2.996822,-0.781779 2.866525,-0.39089 2.736229,-0.130297 c 0,0 1.819012,-0.05861 2.736228,0.260594 0.697326,0.24268 2.475637,1.302966 2.475637,1.302966 l 1.433262,1.563559 z"
     id="path2989"
     inkscape:connector-curvature="0"
     sodipodi:nodetypes="csccscscsssssccccsccc" />
  <path
     style="fill:none;stroke:#000000;stroke-width:1px;stroke-linecap:butt;stroke-linejoin:miter;stroke-opacity:1"
     d="m 59.154661,55.245763 -1.302966,9.381356 -0.39089,5.342161 c 0,0 -0.277286,5.21663 -0.651483,6.645127 -0.404078,1.542572 -2.345339,4.169491 -2.345339,4.169491 0,0 -2.076738,1.935822 -3.387712,2.345339 -0.994959,0.310802 -3.127118,0 -3.127118,0 l -4.690678,-1.563559 c 0,0 -2.375919,-1.082571 -3.648305,-1.302966 -1.711799,-0.296507 -5.211865,0 -5.211865,0 l -5.733051,0 c 0,0 -3.536889,0.252122 -5.211864,0.78178 -1.111176,0.351374 -2.602039,0.576917 -3.778602,1.172669 -1.108221,0.561147 -2.996822,2.215042 -2.996822,2.215042 0,0 -2.310704,1.634838 -2.866526,2.866526 -0.572789,1.269286 -0.260593,4.169491 -0.260593,4.169491 0,0 0.07563,3.181912 0.521187,4.690678 0.385081,1.303971 1.824152,3.648305 1.824152,3.648305 0,0 1.639884,2.706367 2.866526,3.648307 1.574068,1.20873 5.472458,2.34534 5.472458,2.34534 0,0 3.780208,1.13856 5.73305,1.30296 1.56045,0.13137 3.177168,0.14134 4.690678,-0.26059 1.501823,-0.39883 4.169491,-2.08475 4.169491,-2.08475 l 3.387713,-2.60593 2.605932,-2.605933 1.824152,-3.127115 1.56356,-2.866526 c 0,0 1.137539,-2.160336 2.084746,-2.866525 1.255454,-0.936002 3.029438,-1.775313 4.430085,-2.475636 1.120517,-0.560259 3.387711,-1.824153 3.387711,-1.824153 l 3.518008,-1.824152 4.299789,-2.475636 3.387712,-2.084746 3.387712,-2.605931 2.345339,-2.605933 2.345338,-2.345339 2.084747,-2.605932 c 0,0 1.07705,-1.297025 1.302965,-2.084746 0.287364,-1.001979 0.329627,-2.138236 0,-3.127118 -0.412034,-1.236102 -1.14949,-2.609754 -2.345339,-3.127119 -0.721925,-0.312329 -1.636382,-0.08015 -2.345339,0.260593 -0.885763,0.42572 -2.084745,2.084746 -2.084745,2.084746 l -1.042373,2.084746 c 0,0 -0.932414,1.979797 -1.56356,2.866525 -0.748817,1.052051 -2.605932,2.866526 -2.605932,2.866526 0,0 -1.029696,1.495077 -1.824152,1.824152 -0.561766,0.232691 -1.285554,0.282201 -1.824153,0 -1.216571,-0.637426 -2.345339,-2.345339 -2.345339,-3.387712 0,-1.042373 -0.180427,-2.964454 0,-4.430085 0.2188,-1.777338 1.302966,-5.211864 1.302966,-5.211864 l 1.042373,-7.817797 c 0,0 0.344297,-4.026909 0.78178,-5.993644 0.435445,-1.957574 1.33751,-3.787571 1.824152,-5.73305 0.407236,-1.628032 0.692074,-3.59556 0.912076,-4.951272 0.320025,-1.972084 0.39089,-3.908898 0.39089,-4.951271 0,-1.042373 0.735846,-4.394082 0.260594,-6.51483 -0.49277,-2.19892 -1.177968,-4.275864 -2.345339,-6.123941 -0.672651,-1.064879 -1.808122,-1.932351 -2.605933,-2.736229 -1.238989,-1.248411 -4.430084,-2.866525 -4.430084,-2.866525 0,0 -4.65653,-1.468176 -7.036017,-1.302966 -2.192237,0.152209 -4.402633,0.901262 -6.254238,2.084745 -1.708664,1.092119 -4.169491,4.430085 -4.169491,4.430085 0,0 -2.097027,3.206345 -2.866525,4.951271 -0.69836,1.583612 -1.56356,4.951272 -1.56356,4.951272 l -0.521186,4.690677 -0.78178,4.430085 c 0,0 -0.417366,3.183853 0,4.690678 0.405607,1.464371 2.345339,3.908899 2.345339,3.908899 l 2.605932,3.387711 c 0,0 1.911759,2.002621 3.127119,2.605933 1.038054,0.515296 3.387712,0.781779 3.387712,0.781779 0,0 2.260218,0.367733 3.387712,0.260593 0.985965,-0.09369 2.866525,-0.781779 2.866525,-0.781779 0,0 2.118626,-0.538133 3.127119,-0.260593 0.720451,0.19827 1.519496,0.620657 1.824152,1.302966 0.320701,0.718245 -0.260593,2.345339 -0.260593,2.345339 z"
     id="path2991"
     inkscape:connector-curvature="0"
     sodipodi:nodetypes="cccscsccsccsscscscscsscccccssccccccccssssccscssssccssssssscsscscccsccscscssc" />
</svg>
