<?xml version="1.0" encoding="UTF-8" standalone="no"?>
<!-- Created with Inkscape (http://www.inkscape.org/) -->

<svg
   xmlns:dc="http://purl.org/dc/elements/1.1/"
   xmlns:cc="http://creativecommons.org/ns#"
   xmlns:rdf="http://www.w3.org/1999/02/22-rdf-syntax-ns#"
   xmlns:svg="http://www.w3.org/2000/svg"
   xmlns="http://www.w3.org/2000/svg"
   xmlns:sodipodi="http://sodipodi.sourceforge.net/DTD/sodipodi-0.dtd"
   xmlns:inkscape="http://www.inkscape.org/namespaces/inkscape"
   id="svg2"
   version="1.1"
   inkscape:version="0.48.4 r9939"
   width="114"
   height="117"
   sodipodi:docname="H.jpg">
  <metadata
     id="metadata8">
    <rdf:RDF>
      <cc:Work
         rdf:about="">
        <dc:format>image/svg+xml</dc:format>
        <dc:type
           rdf:resource="http://purl.org/dc/dcmitype/StillImage" />
        <dc:title></dc:title>
      </cc:Work>
    </rdf:RDF>
  </metadata>
  <defs
     id="defs6" />
  <sodipodi:namedview
     pagecolor="#ffffff"
     bordercolor="#666666"
     borderopacity="1"
     objecttolerance="10"
     gridtolerance="10"
     guidetolerance="10"
     inkscape:pageopacity="0"
     inkscape:pageshadow="2"
     inkscape:window-width="1366"
     inkscape:window-height="677"
     id="namedview4"
     showgrid="false"
     inkscape:zoom="4.034188"
     inkscape:cx="57"
     inkscape:cy="58.5"
     inkscape:window-x="0"
     inkscape:window-y="28"
     inkscape:window-maximized="1"
     inkscape:current-layer="svg2" />
  <path
     style="fill:none;stroke:#000000;stroke-width:1px;stroke-linecap:butt;stroke-linejoin:miter;stroke-opacity:1"
     d="m 30.98517,17.351695 c -0.850571,1.316942 1.239406,41.891949 1.239406,41.891949 0,0 -2.999431,0.212312 -4.213983,0.991525 -0.792935,0.508719 -1.735169,2.230933 -1.735169,2.230933 0,0 -1.276938,2.072207 -1.239407,3.222457 0.03858,1.182411 1.487288,3.222458 1.487288,3.222458 l 1.983051,1.735169 c 0,0 2.907629,0.167343 2.974576,1.239407 0.532818,8.532312 1.133682,21.202472 1.487288,31.233047 0.06645,1.88483 2.726695,4.95763 2.726695,4.95763 0,0 1.109996,1.63897 1.983051,1.73517 1.029087,0.11339 2.093388,-0.66827 2.726695,-1.48729 0.833583,-1.07803 0.991525,-3.9661 0.991525,-3.9661 L 40.15678,72.381356 76.595339,70.398305 c 0,0 1.132835,0.512589 1.487288,0.991525 0.513181,0.693408 0.743644,2.478814 0.743644,2.478814 l 0,19.334746 c 0,0 -0.0266,1.67645 0.495763,2.230932 0.41248,0.43784 1.735169,0.495763 1.735169,0.495763 0,0 2.061981,0.917189 2.974577,0.495762 0.874817,-0.403981 1.487288,-2.478813 1.487288,-2.478813 0,0 0.701018,-17.550511 0.743644,-24.540254 0.0052,-0.850682 1.380308,-1.250623 2.230932,-1.239407 3.045868,0.04016 5.504321,0.802503 7.932204,-0.247882 0.536229,-0.231991 1.239406,-1.239406 1.239406,-1.239406 0,0 0.3162,-1.715439 0,-2.478814 -0.35774,-0.86366 -1.983051,-1.983051 -1.983051,-1.983051 0,0 -1.731428,-1.202117 -2.726694,-1.487288 -1.352659,-0.387574 -2.993427,0.45222 -4.213984,-0.247881 -0.775268,-0.444687 -1.487288,-2.230932 -1.487288,-2.230932 0,0 -0.252943,-24.747001 0.991526,-38.917373 0.08704,-0.991147 -1.983051,-2.230932 -1.983051,-2.230932 0,0 -2.096666,-1.478316 -3.222458,-1.239407 -0.800148,0.169803 -1.735169,1.735169 -1.735169,1.735169 0,0 -1.741942,2.002502 -1.73517,3.222458 0.06629,11.941102 -0.495762,34.70339 -0.495762,34.70339 0,0 0.406184,2.070067 0,2.974576 -0.407592,0.907645 -2.230933,1.983051 -2.230933,1.983051 l -2.726695,0.495763 c 0,0 -18.584525,0.129361 -29.745763,0 -0.77945,-0.009 -2.974576,-1.983051 -2.974576,-1.983051 0,0 -1.41793,-2.89566 -1.487288,-4.461865 -0.526777,-11.89539 -0.181009,-23.749892 -0.495762,-36.190678 -0.02437,-0.963281 -2.478814,-1.487288 -2.478814,-1.487288 0,0 -1.616448,-0.765884 -2.478814,-0.743644 -1.227932,0.03167 -2.275062,-0.611244 -3.470338,1.239407 z"
     id="path2987"
     inkscape:connector-curvature="0"
     sodipodi:nodetypes="scscsccsscsscccsccscscssscscsscscscscsccscsscss" />
</svg>
