<?xml version="1.0" encoding="UTF-8" standalone="no"?>
<!-- Created with Inkscape (http://www.inkscape.org/) -->

<svg
   xmlns:dc="http://purl.org/dc/elements/1.1/"
   xmlns:cc="http://creativecommons.org/ns#"
   xmlns:rdf="http://www.w3.org/1999/02/22-rdf-syntax-ns#"
   xmlns:svg="http://www.w3.org/2000/svg"
   xmlns="http://www.w3.org/2000/svg"
   xmlns:sodipodi="http://sodipodi.sourceforge.net/DTD/sodipodi-0.dtd"
   xmlns:inkscape="http://www.inkscape.org/namespaces/inkscape"
   id="svg3791"
   version="1.1"
   inkscape:version="0.48.4 r9939"
   width="108"
   height="141"
   sodipodi:docname="h_minus.jpg">
  <metadata
     id="metadata3797">
    <rdf:RDF>
      <cc:Work
         rdf:about="">
        <dc:format>image/svg+xml</dc:format>
        <dc:type
           rdf:resource="http://purl.org/dc/dcmitype/StillImage" />
        <dc:title></dc:title>
      </cc:Work>
    </rdf:RDF>
  </metadata>
  <defs
     id="defs3795" />
  <sodipodi:namedview
     pagecolor="#ffffff"
     bordercolor="#666666"
     borderopacity="1"
     objecttolerance="10"
     gridtolerance="10"
     guidetolerance="10"
     inkscape:pageopacity="0"
     inkscape:pageshadow="2"
     inkscape:window-width="1366"
     inkscape:window-height="699"
     id="namedview3793"
     showgrid="false"
     inkscape:zoom="3.7092199"
     inkscape:cx="54"
     inkscape:cy="70.5"
     inkscape:window-x="0"
     inkscape:window-y="24"
     inkscape:window-maximized="1"
     inkscape:current-layer="svg3791" />
  <path
     style="fill:none;stroke:#000000;stroke-width:1px;stroke-linecap:butt;stroke-linejoin:miter;stroke-opacity:1"
     d="m 31.003824,121.58891 2.156788,-16.9847 1.078394,-5.93117 3.235181,-5.931166 2.156788,-3.50478 c 0,0 3.598043,-2.362906 5.661568,-2.695985 1.430533,-0.230906 4.313576,0.539197 4.313576,0.539197 0,0 3.053333,0.52269 4.313575,1.347992 1.492276,0.977256 3.50478,4.043978 3.50478,4.043978 l 1.347993,3.774373 0.808795,3.504788 0.808795,4.313573 0.808796,4.31358 1.347992,5.12236 2.426386,4.58318 3.235182,4.04398 c 0,0 2.632446,1.51097 4.043977,1.34799 1.362694,-0.15734 3.50478,-2.15679 3.50478,-2.15679 l 3.50478,-3.77438 4.313576,-4.04397 2.426386,-3.50478 c 0,0 1.310775,-1.50191 1.347992,-2.42639 0.04368,-1.08498 -0.580177,-2.19776 -1.347992,-2.96558 -0.767817,-0.76782 -1.886024,-1.23121 -2.965583,-1.348 -1.279224,-0.1384 -2.738313,0.0458 -3.774379,0.8088 -1.32839,0.97825 -2.426386,4.31358 -2.426386,4.31358 0,0 -0.471745,3.29122 -1.617591,4.31357 -0.829432,0.74004 -2.151586,1.05667 -3.235181,0.8088 -1.36841,-0.31302 -2.547981,-1.47195 -3.235182,-2.69599 -1.20079,-2.13885 -1.078394,-7.27916 -1.078394,-7.27916 l -1.347992,-8.35755 c 0,0 -1.347993,-4.852772 -1.88719,-6.200765 -0.539197,-1.347992 -3.235181,-5.661568 -3.235181,-5.661568 L 58.23327,79.531549 52.302103,75.75717 47.988528,74.409178 c 0,0 -4.210988,-0.202351 -5.931167,0.808795 -1.936824,1.138493 -2.18565,4.129403 -4.043977,5.39197 -0.847527,0.575819 -2.062191,1.292276 -2.965583,0.808795 -1.503335,-0.80456 -1.617591,-4.852772 -1.617591,-4.852772 l 0,-7.548758 -0.539197,-7.279158 -0.539197,-7.548757 10e-7,-9.166349 -0.269599,-8.896749 c 0,0 0.08485,-5.89358 -0.539197,-8.896749 -0.520348,-2.504144 -0.230668,-5.216508 -1.617591,-7.279159 -0.792851,-1.179139 -2.091016,-2.28407 -3.50478,-2.426386 -1.361917,-0.137097 -2.958825,0.518278 -3.774378,1.61759 -0.969717,1.307116 -0.539197,4.852773 -0.539197,4.852773 l 0,7.00956 4.583173,50.954111 0.808796,8.627151 -0.269598,5.661568 -0.539197,4.583176 -0.808796,5.93116 -0.808795,4.85278 c 0,0 -0.808796,4.61772 -0.808796,6.47036 0,1.11158 0.808796,3.23518 0.808796,3.23518 0,0 0.705611,2.17964 1.617591,2.69599 1.01662,0.5756 2.557038,0.68309 3.50478,0 0.691621,-0.49849 0.808795,-2.42639 0.808795,-2.42639 z"
     id="path3801"
     inkscape:connector-curvature="0"
     sodipodi:nodetypes="cccccscsccccccccsccccsssscsssccsccccsssccccccssssccccccccscssc" />
</svg>
