<?xml version="1.0" encoding="UTF-8" standalone="no"?>
<!-- Created with Inkscape (http://www.inkscape.org/) -->

<svg
   xmlns:dc="http://purl.org/dc/elements/1.1/"
   xmlns:cc="http://creativecommons.org/ns#"
   xmlns:rdf="http://www.w3.org/1999/02/22-rdf-syntax-ns#"
   xmlns:svg="http://www.w3.org/2000/svg"
   xmlns="http://www.w3.org/2000/svg"
   xmlns:sodipodi="http://sodipodi.sourceforge.net/DTD/sodipodi-0.dtd"
   xmlns:inkscape="http://www.inkscape.org/namespaces/inkscape"
   id="svg2"
   version="1.1"
   inkscape:version="0.48.4 r9939"
   width="117"
   height="153"
   sodipodi:docname="I.jpg">
  <metadata
     id="metadata8">
    <rdf:RDF>
      <cc:Work
         rdf:about="">
        <dc:format>image/svg+xml</dc:format>
        <dc:type
           rdf:resource="http://purl.org/dc/dcmitype/StillImage" />
        <dc:title></dc:title>
      </cc:Work>
    </rdf:RDF>
  </metadata>
  <defs
     id="defs6" />
  <sodipodi:namedview
     pagecolor="#ffffff"
     bordercolor="#666666"
     borderopacity="1"
     objecttolerance="10"
     gridtolerance="10"
     guidetolerance="10"
     inkscape:pageopacity="0"
     inkscape:pageshadow="2"
     inkscape:window-width="1366"
     inkscape:window-height="715"
     id="namedview4"
     showgrid="false"
     inkscape:zoom="4.3628026"
     inkscape:cx="58.5"
     inkscape:cy="76.5"
     inkscape:window-x="0"
     inkscape:window-y="0"
     inkscape:window-maximized="1"
     inkscape:current-layer="svg2" />
  <path
     style="fill:none;stroke:#000000;stroke-width:1px;stroke-linecap:butt;stroke-linejoin:miter;stroke-opacity:1"
     d="m 24.525519,34.03977 c 4.827488,0.645889 14.211049,1e-6 14.211049,1e-6 L 49.051039,33.81056 62.345245,33.58135 85.266292,31.060035 c 0,0 7.824473,-1.333029 10.543681,-2.062894 1.514076,-0.406395 3.050584,1.878507 3.208946,3.438156 0.162813,1.603489 -0.945677,3.786601 -2.521315,4.125788 -5.431654,1.169271 -16.961574,2.979737 -16.961574,2.979737 0,0 -9.291304,1.52742 -13.981839,1.833684 -1.98227,0.129431 -5.959472,-10e-7 -5.959472,-10e-7 l -0.687631,7.105525 -4.354998,55.92735 c 0,0 -0.03117,2.39074 0.458421,3.43816 0.526669,1.12674 1.279673,2.82302 2.521315,2.75052 7.173645,-0.41889 13.937141,-0.6228 20.858152,-1.60447 1.674503,-0.23751 3.535748,0.49635 4.813419,1.60447 0.903451,0.78356 1.711874,2.01788 1.604474,3.20895 -0.102922,1.14142 -1.108138,2.11659 -2.062894,2.75052 -1.312189,0.87126 -4.58421,1.14606 -4.58421,1.14606 0,0 -38.015832,1.73041 -56.385773,1.83369 -1.537567,0.009 -4.409273,-0.7568 -4.125789,-2.0629 1.146053,-5.28025 5.042631,-5.27184 5.042631,-5.27184 0,0 12.923501,0.39438 19.253678,-0.68763 1.262447,-0.21579 3.667368,-1.14606 3.667368,-1.14606 l 0.22921,-3.43815 c 0,0 3.892404,-38.094303 4.354999,-58.21946 0.03898,-1.695984 0.549738,-5.683567 -1.146052,-5.730261 C 45.9485,42.893549 36.902884,43.4374 36.902884,43.4374 c 0,0 -7.810467,0.275333 -11.689733,0.687631 -1.564433,0.166272 -1.847009,-2.616819 -2.292105,-4.125788 -0.324957,-1.10167 -0.547861,-2.334647 -0.22921,-3.438157 0.288301,-0.998408 0.479007,-2.702563 1.833683,-2.521316 z"
     id="path2987"
     inkscape:connector-curvature="0"
     sodipodi:nodetypes="sccccssscscccsssssscsscsccsscssss" />
</svg>
