<?xml version="1.0" encoding="UTF-8" standalone="no"?>
<!-- Created with Inkscape (http://www.inkscape.org/) -->

<svg
   xmlns:dc="http://purl.org/dc/elements/1.1/"
   xmlns:cc="http://creativecommons.org/ns#"
   xmlns:rdf="http://www.w3.org/1999/02/22-rdf-syntax-ns#"
   xmlns:svg="http://www.w3.org/2000/svg"
   xmlns="http://www.w3.org/2000/svg"
   xmlns:sodipodi="http://sodipodi.sourceforge.net/DTD/sodipodi-0.dtd"
   xmlns:inkscape="http://www.inkscape.org/namespaces/inkscape"
   id="svg2"
   version="1.1"
   inkscape:version="0.48.4 r9939"
   width="48"
   height="117"
   sodipodi:docname="i_minus.jpg">
  <metadata
     id="metadata8">
    <rdf:RDF>
      <cc:Work
         rdf:about="">
        <dc:format>image/svg+xml</dc:format>
        <dc:type
           rdf:resource="http://purl.org/dc/dcmitype/StillImage" />
        <dc:title></dc:title>
      </cc:Work>
    </rdf:RDF>
  </metadata>
  <defs
     id="defs6" />
  <sodipodi:namedview
     pagecolor="#ffffff"
     bordercolor="#666666"
     borderopacity="1"
     objecttolerance="10"
     gridtolerance="10"
     guidetolerance="10"
     inkscape:pageopacity="0"
     inkscape:pageshadow="2"
     inkscape:window-width="1366"
     inkscape:window-height="715"
     id="namedview4"
     showgrid="false"
     inkscape:zoom="5.7052034"
     inkscape:cx="24"
     inkscape:cy="65.511144"
     inkscape:window-x="0"
     inkscape:window-y="0"
     inkscape:window-maximized="1"
     inkscape:current-layer="svg2" />
  <path
     style="fill:none;stroke:#000000;stroke-width:1px;stroke-linecap:butt;stroke-linejoin:miter;stroke-opacity:1"
     d="m 10.516715,93.687948 2.629179,-4.031408 c 0,0 1.719798,-1.612969 2.278622,-2.629179 0.881782,-1.603503 1.127558,-3.484574 1.577507,-5.258357 0.352181,-1.388364 0.729554,-2.781897 0.876393,-4.206686 0.19167,-1.859788 0,-5.608915 0,-5.608915 0,0 -0.777764,-4.195131 -0.701114,-6.310029 0.05811,-1.603276 0.876393,-4.732522 0.876393,-4.732522 l 1.22695,-3.505572 c 0,0 1.488614,-2.718116 2.804457,-3.330293 0.741634,-0.345035 1.729981,-0.380803 2.4539,0 1.003997,0.528133 1.928065,2.804457 1.928065,2.804457 l 1.051671,2.979736 c 0,0 0.264433,3.525634 0,5.258358 -0.295513,1.936384 -1.752786,5.608915 -1.752786,5.608915 l -1.752785,5.433636 c 0,0 -1.513186,2.721032 -1.928065,4.206686 -0.411292,1.47281 -0.496704,3.028361 -0.525836,4.557243 -0.01451,0.761646 0.175279,2.278622 0.175279,2.278622 l 2.278621,2.278622 c 0,0 1.686008,1.602343 2.103344,2.278621 0.92875,1.505007 1.577507,1.577507 1.577507,2.278622 0,0.701114 0.701114,1.577507 -0.175279,1.928065 -0.876393,0.350557 -2.209123,1.63975 -3.330293,1.22695 -1.414944,-0.520964 -3.856129,-2.453901 -3.856129,-2.453901 0,0 -1.68609,-1.090898 -2.629179,-1.051671 -1.174788,0.04886 -3.155014,1.577507 -3.155014,1.577507 0,0 -1.822882,2.476345 -3.155015,2.4539 -0.912517,-0.01537 -1.9300331,-0.856746 -2.1033428,-1.752786 -0.163816,-0.846955 1.2269498,-2.278621 1.2269498,-2.278621 z"
     id="path2987"
     inkscape:connector-curvature="0"
     sodipodi:nodetypes="ccssscsccssccsccssccsssscscssc" />
  <path
     style="fill:none;stroke:#000000;stroke-width:1px;stroke-linecap:butt;stroke-linejoin:miter;stroke-opacity:1"
     d="m 28.044574,18.493434 c 0,0 -3.143658,0.921507 -4.381965,1.928064 -1.170027,0.951056 -2.629178,3.68085 -2.629178,3.68085 0,0 -1.368018,2.3775 -1.752786,3.680851 -0.3837,1.299731 -0.694625,2.432768 -0.876393,3.68085 -0.151798,1.042298 -0.439508,2.241345 -0.175279,3.155015 0.310102,1.072291 1.269863,1.976012 2.278622,2.4539 0.846462,0.401002 2.804457,0.175279 2.804457,0.175279 0,0 2.782679,0.496468 4.031408,0 1.344221,-0.534434 3.68085,-1.402229 3.68085,-1.402229 l 2.804458,-2.278622 c 0,0 1.182069,-1.56553 1.577507,-2.4539 0.541802,-1.217183 0.738212,-2.815526 1.051671,-3.856129 0.354286,-1.176139 -0.964861,-3.759964 -1.402228,-4.907801 -0.562078,-1.475131 -2.629179,-2.804457 -2.629179,-2.804457 0,0 -1.582153,-0.872738 -2.4539,-1.051671 -0.629563,-0.129223 -1.928065,0 -1.928065,0 z"
     id="path2989"
     inkscape:connector-curvature="0"
     sodipodi:nodetypes="cscsssscsccssscsc" />
  <path
     style="fill:none;stroke:#000000;stroke-width:1px;stroke-linecap:butt;stroke-linejoin:miter;stroke-opacity:1"
     d="m 24.013167,60.735573 c -0.129243,-0.569788 -0.471563,-1.471768 -1.051672,-1.402228 -0.883595,0.10592 -1.051671,2.4539 -1.051671,2.4539 l -0.525836,3.505571 -0.350558,3.856129 -0.175278,5.433637 c 0,0 1.497816,-3.797899 1.928065,-5.784194 0.236306,-1.090931 0.333623,-2.106306 0.525835,-3.155014 0.161125,-0.879105 0.525836,-2.629179 0.525836,-2.629179 0,0 0.307082,-1.69755 0.175279,-2.278622 z"
     id="path2991"
     inkscape:connector-curvature="0"
     sodipodi:nodetypes="ssccccsscs" />
</svg>
