<?xml version="1.0" encoding="UTF-8" standalone="no"?>
<!-- Created with Inkscape (http://www.inkscape.org/) -->

<svg
   xmlns:dc="http://purl.org/dc/elements/1.1/"
   xmlns:cc="http://creativecommons.org/ns#"
   xmlns:rdf="http://www.w3.org/1999/02/22-rdf-syntax-ns#"
   xmlns:svg="http://www.w3.org/2000/svg"
   xmlns="http://www.w3.org/2000/svg"
   xmlns:sodipodi="http://sodipodi.sourceforge.net/DTD/sodipodi-0.dtd"
   xmlns:inkscape="http://www.inkscape.org/namespaces/inkscape"
   id="svg2"
   version="1.1"
   inkscape:version="0.48.4 r9939"
   width="129"
   height="165"
   sodipodi:docname="interrogacion_c.jpg">
  <metadata
     id="metadata8">
    <rdf:RDF>
      <cc:Work
         rdf:about="">
        <dc:format>image/svg+xml</dc:format>
        <dc:type
           rdf:resource="http://purl.org/dc/dcmitype/StillImage" />
        <dc:title></dc:title>
      </cc:Work>
    </rdf:RDF>
  </metadata>
  <defs
     id="defs6" />
  <sodipodi:namedview
     pagecolor="#ffffff"
     bordercolor="#666666"
     borderopacity="1"
     objecttolerance="10"
     gridtolerance="10"
     guidetolerance="10"
     inkscape:pageopacity="0"
     inkscape:pageshadow="2"
     inkscape:window-width="1366"
     inkscape:window-height="715"
     id="namedview4"
     showgrid="false"
     inkscape:zoom="2.0227539"
     inkscape:cx="64.5"
     inkscape:cy="43.125536"
     inkscape:window-x="0"
     inkscape:window-y="0"
     inkscape:window-maximized="1"
     inkscape:current-layer="svg2" />
  <path
     style="fill:none;stroke:#000000;stroke-width:1px;stroke-linecap:butt;stroke-linejoin:miter;stroke-opacity:1"
     d="m 69.706946,101.22556 c 0,-0.98875 -0.741563,-5.438131 -0.741563,-5.438131 l 0,-3.21344 0.247188,-2.966253 0.865156,-2.595472 c 0,0 1.258054,-1.770517 2.101097,-2.842659 0.652223,-0.829467 2.471877,-1.977502 2.471877,-1.977502 l 1.977502,-2.22469 2.471878,-1.977502 1.730314,-2.22469 4.449379,-3.955004 2.966253,-4.202191 2.966254,-4.44938 2.471877,-4.943755 c 0,0 1.188148,-2.746362 1.483127,-4.202192 0.540952,-2.669802 0.494375,-8.157196 0.494375,-8.157196 0,0 0.501102,-4.019547 0,-5.932506 -0.383292,-1.463219 -2.22469,-3.955004 -2.22469,-3.955004 l -4.449379,-5.43813 c 0,0 -2.743939,-3.082736 -4.44938,-4.202192 -1.573772,-1.033028 -5.190943,-2.22469 -5.190943,-2.22469 0,0 -4.377803,-1.64447 -6.674069,-1.977502 -1.223142,-0.177395 -3.707816,0 -3.707816,0 0,0 -6.345697,-0.476245 -9.393135,0.247188 -1.50622,0.357562 -4.202192,1.977502 -4.202192,1.977502 l -5.932506,3.955004 -3.460628,3.707816 -5.190943,5.685319 c 0,0 -2.1925,2.672165 -2.966253,4.202191 -0.940694,1.860138 -1.977502,5.932507 -1.977502,5.932507 l -0.988751,3.955004 -0.741563,4.943755 c 0,0 -0.129053,2.048179 0.247188,2.966253 0.488065,1.190936 1.397953,2.25687 2.471877,2.966253 0.717781,0.474132 2.471878,0.741563 2.471878,0.741563 0,0 1.533017,0.267405 2.224689,0 1.142494,-0.441696 1.977502,-0.988751 2.719066,-2.471878 0.741563,-1.483126 -1e-6,-4.696567 -0.494376,-5.685318 -0.494376,-0.988751 -0.247188,-4.202192 -0.247188,-5.190943 0,-0.988751 1.483126,-4.572973 1.483126,-4.572973 l 2.719066,-3.707816 3.707816,-3.460629 2.595472,-2.719065 2.966253,-2.348284 3.584222,-1.730314 c 0,0 2.763623,-0.954233 4.202192,-0.988751 2.261863,-0.05427 4.304216,-0.289337 6.426881,0 1.525179,0.207895 4.44938,1.235939 4.44938,1.235939 0,0 2.39697,0.817019 3.460629,1.483126 1.386138,0.868056 3.707816,3.213441 3.707816,3.213441 0,0 2.256934,1.939922 2.966253,3.213441 0.749001,1.344763 1.235939,4.449379 1.235939,4.449379 l 0.494375,4.696568 c 0,0 0.08263,2.352173 -0.247188,3.460628 -0.483861,1.626177 -2.471877,4.44938 -2.471877,4.44938 0,0 -0.795347,2.25494 -1.483127,3.21344 -1.257239,1.752106 -4.696567,4.44938 -4.696567,4.44938 l -2.966253,2.966253 -4.449379,4.696567 -3.213441,2.719065 -3.213441,3.955005 -1.977502,5.190942 -1.235939,3.213441 -1.235938,4.943755 0,3.707816 0.494375,4.202192 1.235939,2.719069 c 0,0 0.890037,2.94178 1.730314,4.20219 0.711003,1.0665 2.719065,2.71906 2.719065,2.71906 0,0 1.610625,0.41574 2.22469,0 0.734851,-0.49752 0.988751,-2.47187 0.988751,-2.47187 0,0 0.494376,-1.9775 0.494376,-2.96626 0,-0.98875 -0.494376,-2.96625 -0.494376,-2.96625 z"
     id="path2987"
     inkscape:connector-curvature="0"
     sodipodi:nodetypes="cccccsccccccccscsccscscsccccscccsscssssccccccsscscsccscscccccccccccscscsc" />
  <path
     style="fill:none;stroke:#000000;stroke-width:1px;stroke-linecap:butt;stroke-linejoin:miter;stroke-opacity:1"
     d="m 67.111475,125.57355 -2.719066,-0.37078 c 0,0 -1.954708,-0.20972 -2.842659,0.12359 -0.987879,0.37082 -2.471877,1.97751 -2.471877,1.97751 l -1.359533,2.34828 c 0,0 -0.552138,1.45787 -0.617969,2.22469 -0.07083,0.82503 0.123594,2.47188 0.123594,2.47188 l 0.123594,2.96625 c 0,0 0.0515,1.942 0.370781,2.84266 0.210119,0.59272 0.988751,1.60672 0.988751,1.60672 0,0 1.156056,1.60086 1.977502,2.1011 0.512327,0.312 1.730314,0.49437 1.730314,0.49437 l 3.213441,0.37078 2.471878,-0.24718 c 0,0 2.135197,-0.77956 2.842659,-1.60672 0.915161,-1.07 1.483126,-3.95501 1.483126,-3.95501 0,0 0.489145,-3.63975 0.247188,-5.43813 -0.196306,-1.45907 -1.235938,-3.70781 -1.359532,-4.20219 -0.123594,-0.49437 -1.134237,-2.23596 -2.101096,-2.96625 -0.592649,-0.44764 -2.101096,-0.74157 -2.101096,-0.74157 z"
     id="path2989"
     inkscape:connector-curvature="0"
     sodipodi:nodetypes="ccsccsccscscccscsssc" />
</svg>
