<?xml version="1.0" encoding="UTF-8" standalone="no"?>
<!-- Created with Inkscape (http://www.inkscape.org/) -->

<svg
   xmlns:dc="http://purl.org/dc/elements/1.1/"
   xmlns:cc="http://creativecommons.org/ns#"
   xmlns:rdf="http://www.w3.org/1999/02/22-rdf-syntax-ns#"
   xmlns:svg="http://www.w3.org/2000/svg"
   xmlns="http://www.w3.org/2000/svg"
   xmlns:sodipodi="http://sodipodi.sourceforge.net/DTD/sodipodi-0.dtd"
   xmlns:inkscape="http://www.inkscape.org/namespaces/inkscape"
   id="svg2"
   version="1.1"
   inkscape:version="0.48.5 r10040"
   width="117"
   height="177"
   sodipodi:docname="J.jpg">
  <metadata
     id="metadata8">
    <rdf:RDF>
      <cc:Work
         rdf:about="">
        <dc:format>image/svg+xml</dc:format>
        <dc:type
           rdf:resource="http://purl.org/dc/dcmitype/StillImage" />
        <dc:title></dc:title>
      </cc:Work>
    </rdf:RDF>
  </metadata>
  <defs
     id="defs6" />
  <sodipodi:namedview
     pagecolor="#ffffff"
     bordercolor="#666666"
     borderopacity="1"
     objecttolerance="10"
     gridtolerance="10"
     guidetolerance="10"
     inkscape:pageopacity="0"
     inkscape:pageshadow="2"
     inkscape:window-width="1366"
     inkscape:window-height="706"
     id="namedview4"
     showgrid="false"
     inkscape:zoom="1.8856181"
     inkscape:cx="58.5"
     inkscape:cy="37.570427"
     inkscape:window-x="-8"
     inkscape:window-y="-8"
     inkscape:window-maximized="1"
     inkscape:current-layer="svg2" />
  <path
     style="fill:none;stroke:#000000;stroke-width:1px;stroke-linecap:butt;stroke-linejoin:miter;stroke-opacity:1"
     d="m 50.513941,118.00078 c 0.632973,0.68016 0.132582,2.78423 0.132582,2.78423 l 0,1.85616 -0.53033,2.51906 -1.06066,2.65165 -1.856155,3.04941 -1.458408,2.2539 -1.856155,2.2539 -1.856155,1.45841 c 0,0 -1.62996,0.86175 -2.519069,1.06065 -1.035975,0.23175 -3.18198,0.13259 -3.18198,0.13259 l -2.386485,0 -2.386486,0 -2.386485,0 -1.325825,0 -1.590991,0 -1.59099,-0.26517 -2.12132,-0.26516 -1.856156,-0.13258 c 0,0 -1.503694,-0.54766 -1.856155,-1.19325 -0.338836,-0.62064 0,-2.12132 0,-2.12132 0,0 0.219344,-1.80561 0.53033,-2.65165 0.313962,-0.85414 1.325825,-2.38648 1.325825,-2.38648 l 1.590991,-2.12132 2.386485,-2.38649 2.386485,-2.2539 3.579728,-2.51907 4.110059,-1.4584 2.65165,-0.66292 c 0,0 2.65165,-0.39774 3.712311,-0.92807 1.06066,-0.53033 4.24264,-0.53033 4.24264,-0.53033 0,0 1.90639,-0.3012 2.784234,-1e-5 0.953235,0.32706 1.628397,1.04155 2.386485,1.85616 z"
     id="path2987"
     inkscape:connector-curvature="0"
     sodipodi:nodetypes="sccccccccscccccccccscscccccccscss" />
  <path
     style="fill:none;stroke:#000000;stroke-width:1px;stroke-linecap:butt;stroke-linejoin:miter;stroke-opacity:1"
     d="m 59.39697,40.174838 -2.651651,60.457632 c 0,0 0.06225,2.77834 -0.53033,3.97747 -0.443029,0.89651 -1.212808,1.70346 -2.12132,2.12132 -1.047009,0.48156 -3.447146,0.26517 -3.447146,0.26517 l -3.447145,0 -7.159456,1.06066 c 0,0 -2.518122,0.37659 -3.712311,0.79549 -1.119006,0.39253 -3.181981,1.59099 -3.181981,1.59099 l -3.977475,2.12132 -3.181981,1.85616 -3.314562,2.65165 -3.579729,3.44715 -2.12132,2.38648 -1.856156,2.38649 -2.65165,3.97747 -1.06066,3.0494 c 0,0 -0.771774,2.35761 -0.795495,3.57973 -0.01918,0.98802 0.53033,2.91681 0.53033,2.91681 l 1.325825,2.38649 3.447146,2.65165 3.71231,1.06066 4.507806,0.53032 5.303301,0.26517 3.977475,0 4.863961,-0.64016 4.119481,-1.28033 2.761485,-1.81066 c 0,0 1.806261,-1.05921 2.674398,-2.08916 0.932994,-1.10689 2.816403,-3.1498 2.816403,-3.1498 l 1.590991,-2.61948 1.856155,-2.99448 1.856155,-3.71231 2.386485,-4.50781 1.060661,-3.44714 1.59099,-2.91682 2.12132,-2.65165 3.447146,-2.38649 c 0,0 2.916815,-1.85615 3.977475,-2.65165 1.060661,-0.79549 4.772971,-4.5078 4.772971,-4.5078 l 3.181981,-2.38649 4.24264,-4.507803 2.651651,-3.844893 1.856155,-3.049398 c 0,0 0.788567,-1.962941 0.53033,-2.916816 -0.212947,-0.786585 -0.874819,-1.46736 -1.59099,-1.856155 -0.587753,-0.31908 -1.340954,-0.431425 -1.988737,-0.265165 -1.010275,0.259298 -2.519069,1.856155 -2.519069,1.856155 l -14.318912,11.136932 -2.386485,0.795495 -0.265165,-4.24264 3.447145,-53.033009 c 0,0 0.171217,-1.487058 0.53033,-2.12132 0.369524,-0.65265 1.59099,-1.59099 1.59099,-1.59099 l 2.651651,-0.795496 c 0,0 17.090243,-3.374979 26.516504,-6.098796 1.179669,-0.340877 1.856159,-3.18198 1.856159,-3.18198 0,0 -0.54065,-1.688345 -1.06066,-2.386486 -0.486784,-0.653533 -1.856159,-1.59099 -1.856159,-1.59099 0,0 -2.539119,-2.124023 -3.977476,-1.856155 -17.3975,3.239967 -37.209381,7.434757 -57.805979,11.667262 -1.35241,0.277914 -2.65165,3.18198 -2.65165,3.18198 0,0 -0.781518,1.36626 -0.795496,2.121321 -0.02069,1.117842 0.39216,2.285818 1.060661,3.18198 0.645112,0.864808 2.65165,1.856155 2.65165,1.856155 0,0 1.762525,1.042516 2.65165,0.795496 7.102099,-1.973128 19.887379,-5.038136 19.887379,-5.038136 z"
     id="path2989"
     inkscape:connector-curvature="0"
     sodipodi:nodetypes="ccsscccscccccccccsccccccccccscccccccccscccccssscccccsccscscsscsscsc" />
</svg>
