<?xml version="1.0" encoding="UTF-8" standalone="no"?>
<!-- Created with Inkscape (http://www.inkscape.org/) -->

<svg
   xmlns:dc="http://purl.org/dc/elements/1.1/"
   xmlns:cc="http://creativecommons.org/ns#"
   xmlns:rdf="http://www.w3.org/1999/02/22-rdf-syntax-ns#"
   xmlns:svg="http://www.w3.org/2000/svg"
   xmlns="http://www.w3.org/2000/svg"
   xmlns:sodipodi="http://sodipodi.sourceforge.net/DTD/sodipodi-0.dtd"
   xmlns:inkscape="http://www.inkscape.org/namespaces/inkscape"
   id="svg2"
   version="1.1"
   inkscape:version="0.48.5 r10040"
   width="96"
   height="189"
   sodipodi:docname="j_minus.jpg">
  <metadata
     id="metadata8">
    <rdf:RDF>
      <cc:Work
         rdf:about="">
        <dc:format>image/svg+xml</dc:format>
        <dc:type
           rdf:resource="http://purl.org/dc/dcmitype/StillImage" />
        <dc:title></dc:title>
      </cc:Work>
    </rdf:RDF>
  </metadata>
  <defs
     id="defs6" />
  <sodipodi:namedview
     pagecolor="#ffffff"
     bordercolor="#666666"
     borderopacity="1"
     objecttolerance="10"
     gridtolerance="10"
     guidetolerance="10"
     inkscape:pageopacity="0"
     inkscape:pageshadow="2"
     inkscape:window-width="1366"
     inkscape:window-height="706"
     id="namedview4"
     showgrid="false"
     inkscape:zoom="1.2486772"
     inkscape:cx="48"
     inkscape:cy="174.82313"
     inkscape:window-x="-8"
     inkscape:window-y="-8"
     inkscape:window-maximized="1"
     inkscape:current-layer="svg2" />
  <path
     style="fill:none;stroke:#000000;stroke-width:1px;stroke-linecap:butt;stroke-linejoin:miter;stroke-opacity:1"
     d="m 53.456568,15.816737 c 0,0 -2.397849,0.01471 -3.391457,0.588491 -0.907697,0.524166 -2.014263,2.414687 -2.014263,2.414687 l -1.284202,1.989974 -1.118341,3.015323 -0.234562,2.414687 0.07079,2.131545 0.317493,1.53091 0.588491,1.684625 0.812992,1.423688 c 0,0 0.730306,0.937341 1.367133,1.284203 0.611035,0.332814 1.482329,0.541994 1.482329,0.541994 l 2.002119,0.200212 1.801907,-0.400424 1.401483,-0.400423 1.896982,-1.176981 1.872692,-1.718977 c 0,0 1.014922,-1.554675 1.284202,-2.345985 0.267028,-0.784694 0.127342,-2.48339 0.127342,-2.48339 l 0.175922,-2.592693 -0.07079,-1.6239 c 0,0 0.07579,-1.267833 -0.08085,-1.872693 -0.187054,-0.722319 -1.001059,-2.002119 -1.001059,-2.002119 L 58.461856,17.018008 57.24844,16.07559 55.6346,15.758096 z"
     id="path2987"
     inkscape:connector-curvature="0"
     sodipodi:nodetypes="csccccccccsccccccscccsccccc" />
  <path
     style="fill:none;stroke:#000000;stroke-width:1px;stroke-linecap:butt;stroke-linejoin:miter;stroke-opacity:1"
     d="m 30.03178,125.13242 -1.601695,1.50158 -1.101165,0.90096 c 0,0 -1.00106,0.50053 -1.401484,1.00106 -0.400423,0.50053 -2.402542,2.40254 -2.402542,2.40254 l -1.601695,1.7018 -0.800847,0.80085 -0.800848,1.10116 c 0,0 -0.300318,0.70074 -0.500529,1.30138 -0.200212,0.60064 -0.300318,1.60169 -0.300318,1.60169 l 0.100106,0.70075 0.700741,1.00106 0.900954,0.50053 0.700741,0.20021 1.601695,0.1001 1.902013,-0.60063 1.701801,-0.80085 1.601695,-0.60064 1.601695,-0.90095 1.501588,-0.80085 1.701801,-0.90095 1.101166,-0.80085 1.601695,-1.10116 1.501589,-1.00106 1.101165,-1.00106 1.001059,-0.80085 1.101165,-0.90095 1.501589,-1.30138 0.700742,-1.10116 0.800847,-1.00106 0.200212,-1.40149 0.100107,-1.50159 -0.900955,-1.30138 -0.600635,-0.40041 -0.900953,-0.30033 -0.800847,-0.40042 -0.800848,-0.30031 -1.201271,-0.40043 -1.201271,0.10011 -1.101166,0.1001 c 0,0 -1.001059,0.50053 -1.401483,0.80085 -0.400424,0.30031 -1.601695,0.90096 -1.601695,0.90096 l -1.201271,0.90095 -1.301377,1.00106 z"
     id="path2989"
     inkscape:connector-curvature="0"
     sodipodi:nodetypes="cccsccccscccccccccccccccccccccccccccccccccccc" />
  <path
     style="fill:none;stroke:#000000;stroke-width:1px;stroke-linecap:butt;stroke-linejoin:miter;stroke-opacity:1"
     d="m 49.952861,56.459746 c -0.69064,3.808651 -0.700742,11.612288 -0.700742,11.612288 l 0.400423,12.813559 -0.400423,10.811441 0,7.608051 -0.400424,4.805085 -1.201271,2.00212 -1.201271,2.00212 -3.20339,2.00212 -5.605932,2.80296 -6.006356,2.80297 -6.807204,4.40466 -4.004237,4.00424 -4.805085,4.40466 -1.902013,2.30243 c 0,0 -1.7018,2.50265 -1.7018,4.10435 0,1.60169 -0.800848,5.20551 -0.800848,5.20551 l 0,4.00423 c 0,0 1.592226,2.46362 2.802966,3.20339 1.291424,0.78907 2.8943,1.00521 4.404662,1.10116 1.978569,0.1257 5.906249,-0.70074 5.906249,-0.70074 l 4.104343,-0.70073 4.404662,-1.30138 5.605932,-2.80297 3.603813,-2.80296 2.802967,-2.90308 c 0,0 1.601694,-2.70286 2.802965,-4.30455 1.201272,-1.6017 2.402543,-5.60593 2.402543,-5.60593 l 1.201271,-4.00424 0,-3.20339 1.601695,-3.20339 1.601695,-3.20339 2.802966,-2.40254 3.20339,-3.60382 2.802966,-2.80296 2.002119,-1.6017 c 0,0 2.199177,-2.77246 2.802966,-4.404659 0.327451,-0.885183 0.400423,-2.802966 0.400423,-2.802966 0,0 0.507729,-1.783214 0,-2.402543 -0.431486,-0.526328 -1.338389,-0.550975 -2.002118,-0.400423 -1.30168,0.295256 -1.984893,1.857739 -3.20339,2.402542 -0.621314,0.277796 -2.002119,0.400424 -2.002119,0.400424 l -2.802966,0.400424 -1.201271,-1.201272 -0.400424,-4.404661 0,-7.207627 0.800848,-8.408898 0.400423,-8.408898 1.201272,-6.807204 c 0,0 0.400423,-1.601695 0,-3.603813 -0.400424,-2.002119 -0.35898,-4.143333 -2.002119,-5.40572 -1.058438,-0.813176 -3.603814,-0.600636 -3.603814,-0.600636 0,0 -1.749463,-0.08192 -2.402542,0.400423 -0.72023,0.531944 -1.201271,2.402543 -1.201271,2.402543 0,0 -0.297053,2.081282 -0.500529,3.20339 z"
     id="path2991"
     inkscape:connector-curvature="0"
     sodipodi:nodetypes="sccccccccccccccsccssccccccscccccccccscsssccccccccsscscs" />
</svg>
