<?xml version="1.0" encoding="UTF-8" standalone="no"?>
<!-- Created with Inkscape (http://www.inkscape.org/) -->

<svg
   xmlns:dc="http://purl.org/dc/elements/1.1/"
   xmlns:cc="http://creativecommons.org/ns#"
   xmlns:rdf="http://www.w3.org/1999/02/22-rdf-syntax-ns#"
   xmlns:svg="http://www.w3.org/2000/svg"
   xmlns="http://www.w3.org/2000/svg"
   xmlns:sodipodi="http://sodipodi.sourceforge.net/DTD/sodipodi-0.dtd"
   xmlns:inkscape="http://www.inkscape.org/namespaces/inkscape"
   width="210mm"
   height="297mm"
   viewBox="0 0 744.09448819 1052.3622047"
   id="svg2"
   version="1.1"
   inkscape:version="0.91 r13725"
   sodipodi:docname="K.svg">
  <defs
     id="defs4" />
  <sodipodi:namedview
     id="base"
     pagecolor="#ffffff"
     bordercolor="#666666"
     borderopacity="1.0"
     inkscape:pageopacity="0.0"
     inkscape:pageshadow="2"
     inkscape:zoom="2.8"
     inkscape:cx="375"
     inkscape:cy="570.00158"
     inkscape:document-units="px"
     inkscape:current-layer="layer1"
     showgrid="false"
     inkscape:window-width="1366"
     inkscape:window-height="724"
     inkscape:window-x="0"
     inkscape:window-y="25"
     inkscape:window-maximized="1" />
  <metadata
     id="metadata7">
    <rdf:RDF>
      <cc:Work
         rdf:about="">
        <dc:format>image/svg+xml</dc:format>
        <dc:type
           rdf:resource="http://purl.org/dc/dcmitype/StillImage" />
        <dc:title></dc:title>
      </cc:Work>
    </rdf:RDF>
  </metadata>
  <g
     inkscape:label="Layer 1"
     inkscape:groupmode="layer"
     id="layer1">
    <path
       style="fill:none;fill-rule:evenodd;stroke:#000000;stroke-width:1px;stroke-linecap:butt;stroke-linejoin:miter;stroke-opacity:1"
       d="m 350.35714,520.21935 c -0.0793,-33.19749 1.1e-4,-70.92817 -1.78571,-107.85715 -0.0692,-1.43185 1.54942,-2.62703 2.85714,-3.21428 0.8688,-0.39015 2.85714,0 2.85714,0 l 1.78572,0.35714 c 0,0 3.25694,0.62954 4.28571,1.78572 0.57612,0.64747 0.71429,2.5 0.71429,2.5 l 1.07143,38.92857 1.07143,2.85714 1.07142,2.14286 2.85715,-0.71429 L 415,428.07649 l 2.85714,0 2.5,0.71429 c 0,0 2.14472,0.63722 2.85715,1.42857 0.68054,0.75594 1.07142,2.85714 1.07142,2.85714 0,0 0.53486,1.44087 0.35715,2.14286 -0.33311,1.31584 -2.5,3.21428 -2.5,3.21428 0,0 -34.02908,19.65356 -51.42857,29.64286 -0.61946,0.35564 -0.54159,1.67715 0,2.14286 23.52276,20.22677 53.92857,43.92857 53.92857,43.92857 l 2.85714,5.35714 c 0,0 0.25053,1.70522 0,2.5 -0.43688,1.38594 -2.5,3.57143 -2.5,3.57143 l -1.78571,0.71429 -3.92858,0.35714 -3.57142,-0.35714 c -15.84849,-14.33507 -24.24323,-21.96177 -48.57143,-43.92858 0,0 -2.26161,-0.49027 -3.21429,0 -0.91058,0.4686 -1.78571,2.5 -1.78571,2.5 l -0.35715,1.07143 c 0,0 4.60097,20.96149 3.92858,31.78572 -0.0595,0.95795 -1.42858,2.5 -1.42858,2.5 0,0 -0.96195,1.89159 -1.78571,2.5 -0.90847,0.67097 -3.21429,1.07143 -3.21429,1.07143 l -4.28571,0 c 0,0 -4.6382,-1.61891 -4.64286,-3.57143 z"
       id="path4219"
       inkscape:connector-curvature="0"
       sodipodi:nodetypes="sssccsccccccccscscssccscccccsccscsccs" />
  </g>
</svg>
