<?xml version="1.0" encoding="UTF-8" standalone="no"?>
<!-- Created with Inkscape (http://www.inkscape.org/) -->

<svg
   xmlns:dc="http://purl.org/dc/elements/1.1/"
   xmlns:cc="http://creativecommons.org/ns#"
   xmlns:rdf="http://www.w3.org/1999/02/22-rdf-syntax-ns#"
   xmlns:svg="http://www.w3.org/2000/svg"
   xmlns="http://www.w3.org/2000/svg"
   xmlns:sodipodi="http://sodipodi.sourceforge.net/DTD/sodipodi-0.dtd"
   xmlns:inkscape="http://www.inkscape.org/namespaces/inkscape"
   id="svg3013"
   version="1.1"
   inkscape:version="0.48.5 r10040"
   width="84"
   height="153"
   sodipodi:docname="ยก.jpg">
  <metadata
     id="metadata3019">
    <rdf:RDF>
      <cc:Work
         rdf:about="">
        <dc:format>image/svg+xml</dc:format>
        <dc:type
           rdf:resource="http://purl.org/dc/dcmitype/StillImage" />
        <dc:title></dc:title>
      </cc:Work>
    </rdf:RDF>
  </metadata>
  <defs
     id="defs3017" />
  <sodipodi:namedview
     pagecolor="#ffffff"
     bordercolor="#666666"
     borderopacity="1"
     objecttolerance="10"
     gridtolerance="10"
     guidetolerance="10"
     inkscape:pageopacity="0"
     inkscape:pageshadow="2"
     inkscape:window-width="1366"
     inkscape:window-height="706"
     id="namedview3015"
     showgrid="false"
     inkscape:zoom="4.3628026"
     inkscape:cx="42"
     inkscape:cy="76.5"
     inkscape:window-x="-8"
     inkscape:window-y="-8"
     inkscape:window-maximized="1"
     inkscape:current-layer="svg3013" />
  <path
     style="fill:none;stroke:#000000;stroke-width:1px;stroke-linecap:butt;stroke-linejoin:miter;stroke-opacity:1"
     d="m 36.305085,23.338983 c -2.611167,0 -7.131356,3.241525 -7.131356,3.241525 0,0 -4.305009,3.746357 -4.269599,6.862819 0.02997,2.637687 3.621294,6.712262 3.621294,6.712262 0,0 4.384775,2.822431 6.712261,2.822431 2.327487,0 7.858313,-3.280852 7.858313,-3.280852 0,0 2.815994,-2.896064 3.162873,-5.638114 0.334401,-2.643406 -2.82243,-7.478546 -2.82243,-7.478546 0,0 -4.520189,-3.241525 -7.131356,-3.241525 z"
     id="path3023"
     inkscape:connector-curvature="0"
     sodipodi:nodetypes="scscscscs" />
  <path
     style="fill:none;stroke:#000000;stroke-width:1px;stroke-linecap:butt;stroke-linejoin:miter;stroke-opacity:1"
     d="m 38.278147,59.711342 -5.04263,5.271841 -3.667368,8.022366 -1.604473,9.168419 -2.062894,8.480787 -2.062894,6.876313 -2.979736,10.772892 -3.438157,4.81342 -4.125788,2.52131 -2.521315,2.0629 -1.3752631,2.75052 0,3.89658 1.1460521,2.29211 1.833684,2.2921 3.896578,0.68763 5.04263,-0.22921 3.667367,-0.91684 4.125789,-0.68763 4.584209,0 6.647103,0.22921 5.501051,-0.68763 5.959472,0.22921 5.04263,0.22921 c 0,0 4.432669,0.18394 5.501051,-1.37526 1.044549,-1.52442 -0.687631,-5.50105 -0.687631,-5.50105 l -2.292105,-17.87842 -0.687631,-6.647104 -2.292105,-6.417893 -3.438157,-5.959472 -4.354998,-7.105524 -0.687632,-4.81342 -1.604473,-3.896578 -2.062894,-4.354998 -2.062894,-2.750526 z"
     id="path3025"
     inkscape:connector-curvature="0"
     sodipodi:nodetypes="cccccccccccccccccccccccsccccccccccc" />
</svg>
