<?xml version="1.0" encoding="UTF-8" standalone="no"?>
<!-- Created with Inkscape (http://www.inkscape.org/) -->

<svg
   xmlns:dc="http://purl.org/dc/elements/1.1/"
   xmlns:cc="http://creativecommons.org/ns#"
   xmlns:rdf="http://www.w3.org/1999/02/22-rdf-syntax-ns#"
   xmlns:svg="http://www.w3.org/2000/svg"
   xmlns="http://www.w3.org/2000/svg"
   xmlns:sodipodi="http://sodipodi.sourceforge.net/DTD/sodipodi-0.dtd"
   xmlns:inkscape="http://www.inkscape.org/namespaces/inkscape"
   id="svg2"
   version="1.1"
   inkscape:version="0.48.4 r9939"
   width="105"
   height="204"
   sodipodi:docname="¿.jpg">
  <metadata
     id="metadata8">
    <rdf:RDF>
      <cc:Work
         rdf:about="">
        <dc:format>image/svg+xml</dc:format>
        <dc:type
           rdf:resource="http://purl.org/dc/dcmitype/StillImage" />
        <dc:title></dc:title>
      </cc:Work>
    </rdf:RDF>
  </metadata>
  <defs
     id="defs6" />
  <sodipodi:namedview
     pagecolor="#ffffff"
     bordercolor="#666666"
     borderopacity="1"
     objecttolerance="10"
     gridtolerance="10"
     guidetolerance="10"
     inkscape:pageopacity="0"
     inkscape:pageshadow="2"
     inkscape:window-width="1366"
     inkscape:window-height="711"
     id="namedview4"
     showgrid="false"
     inkscape:zoom="3.272102"
     inkscape:cx="52.5"
     inkscape:cy="102"
     inkscape:window-x="0"
     inkscape:window-y="0"
     inkscape:window-maximized="1"
     inkscape:current-layer="svg2" />
  <path
     style="fill:none;stroke:#000000;stroke-width:1px;stroke-linecap:butt;stroke-linejoin:miter;stroke-opacity:1"
     d="m 67.540683,35.606715 c -2.343202,-0.09807 -5.806665,3.972981 -5.806665,3.972981 l -0.916842,7.029121 c 0,0 1.826685,4.084316 3.667367,4.889823 2.196639,0.961279 6.417893,-1.222456 6.417893,-1.222456 0,0 3.880908,-4.879604 3.361753,-7.945963 -0.592269,-3.498206 -3.17862,-6.575138 -6.723506,-6.723506 z"
     id="path2987"
     inkscape:connector-curvature="0"
     sodipodi:nodetypes="sccscss" />
  <path
     style="fill:none;stroke:#000000;stroke-width:1px;stroke-linecap:butt;stroke-linejoin:miter;stroke-opacity:1"
     d="m 71.819278,65.556882 -8.557191,-0.305614 0.611228,44.619632 c 0,0 -8.985725,-1.38523 -13.1414,0 -3.865745,1.28858 -9.779646,7.33474 -9.779646,7.33474 0,0 -4.978254,5.37708 -6.723507,8.55719 -1.922105,3.50236 -3.356001,7.36052 -3.972981,11.30772 -0.566581,3.62477 0.305614,11.0021 0.305614,11.0021 0,0 2.413266,9.17264 5.501051,12.53017 2.746259,2.98617 10.696488,5.80666 10.696488,5.80666 l 31.478237,0 c 0,0 6.763656,-1.14527 8.55719,-4.2786 2.086599,-3.64531 -1.222456,-11.00209 -1.222456,-11.00209 0,0 -5.608368,-1.07323 -8.251576,-0.30562 -3.799011,1.10326 -5.434452,5.66161 -9.779646,6.72351 -4.358695,1.0652 -13.447014,-0.61123 -13.447014,-0.61123 l -9.779647,-6.11228 c 0,0 -4.585888,-6.3543 -4.889823,-9.16841 -0.390902,-3.61934 2.444912,-10.6965 2.444912,-10.6965 l 5.195437,-7.02911 c 0,0 5.082293,-3.09628 7.945963,-3.36176 3.322718,-0.30804 9.779646,2.1393 9.779646,2.1393 l 7.029121,0 z"
     id="path2989"
     inkscape:connector-curvature="0"
     sodipodi:nodetypes="cccscsscsccscssccsccsccc" />
</svg>
